<?xml version="1.0" encoding="UTF-8"?>
<svg xmlns="http://www.w3.org/2000/svg" viewBox="0 0 1259.42 1624.54">
  <defs>
    <style>
      .cls-1 {
        mix-blend-mode: multiply;
        opacity: .4;
      }

      .cls-2 {
        isolation: isolate;
      }

      .cls-3 {
        fill: #a0c7f6;
      }

      .cls-4 {
        fill: #f3ca46;
      }

      .cls-5 {
        fill: #d3fbfa;
      }

      .cls-6 {
        fill: #daecef;
      }
    </style>
  </defs>
  <g class="cls-2">
    <g id="_レイヤー_2" data-name="レイヤー 2">
      <g id="_レイヤー_1-2" data-name="レイヤー 1">
        <g>
          <path class="cls-5" d="M1145.53,613.86c0-65.14-29.95-123.42-77.12-162.49-38.88-32.2-60.42-80.1-60.42-129.88v-29.11c0-49.78,21.54-97.68,60.42-129.88,32.63-27.03,57.02-63.25,68.95-104.57C1145.74,28.91,1123.75,0,1093.55,0H51.98C21.78,0-.22,28.91,8.16,57.92c11.93,41.33,36.32,77.55,68.95,104.58,38.88,32.2,60.42,80.1,60.42,129.88v29.11c0,49.78-21.54,97.68-60.42,129.88C29.94,490.44,0,548.72,0,613.86v967.93c0,14.42.82,28.65,2.4,42.66h1140.74c1.58-14.01,2.4-28.24,2.4-42.66v-967.93Z"/>
          <g class="cls-1">
            <path class="cls-3" d="M1259.42,613.96c0-65.14-29.95-123.42-77.12-162.49-38.88-32.2-60.42-80.1-60.42-129.88v-29.11c0-49.78,21.54-97.68,60.42-129.88,32.63-27.03,57.02-63.25,68.95-104.57,8.38-29.01-13.62-57.92-43.81-57.92H165.86c-30.2,0-52.19,28.91-43.81,57.92,11.93,41.33,36.32,77.55,68.95,104.58,38.88,32.2,60.42,80.1,60.42,129.88v29.11c0,49.78-21.54,97.68-60.42,129.88-47.17,39.07-77.12,97.35-77.12,162.49v967.93c0,14.42.82,28.65,2.4,42.66h1140.74c1.58-14.01,2.4-28.24,2.4-42.66v-967.93Z"/>
          </g>
          <path class="cls-6" d="M10.15,1384.04c71.88,60.34,175.56,58.51,269.28,53.55,65.08-3.44,136.84-9.8,181.96-56.83,14.98-15.61,25.89-34.78,41.17-50.09,51.49-51.6,136.35-46.83,200.77-80.94,7.9-4.18,15.8-9.27,20.2-17.05,5.32-9.39,4.58-20.9,3.7-31.66-3.07-37.24-6.14-74.47-9.21-111.71-.94-11.37-1.66-23.68,4.5-33.29,5.89-9.19,16.69-13.74,26.83-17.77l84.27-33.44c42.69-16.94,65.03-63.12,53.56-107.59-5.79-22.42-4.51-44.45,10.16-62.5,12.55-15.44,32.05-23.05,48.94-33.57,16.89-10.52,32.97-27.63,30.79-47.41-3.53-32.13-46.34-39.33-78.66-39.91-71.3-1.28-142.42-11.96-210.95-31.69-20.71-5.96-42.14-13.3-55.19-31.47-5.29-7.36-8.31-16.25-8.05-25.32.61-21.35,16.94-29.83,32.11-37.28,2.72-1.34,5.45-2.68,8.17-4.01,34.52-16.96,27.06-68.81-10.98-74.5-5.43-.81-10.89-1.31-16.28-1.51-34.79-1.28-69.35,6.94-104.16,6.52-52.81-.64-104.99-21.11-157.32-13.94-44.83,6.14-84.14,31.79-125.31,50.57-74.97,34.19-157.99,56.75-239.49,44.59l-.85,788.24Z"/>
          <path class="cls-4" d="M293.92,830.31c30.71,1.9,63.26,13.34,83.4,35.3,10.33,11.26,6.07,29.38-7.98,35.38-57.03,24.34-120.31,34.01-182,27.47-5.24-.56-10.31-2.4-14.59-5.48-14.82-10.67-2.35-16.11,13.09-20.71,9.78-2.92,8.82-17.11-1.27-18.66-16.42-2.53-33.02-5.92-40.16-19.5-16.76-31.9,35.55-26.44,53.21-27.64,32.11-2.19,64.01-8.15,96.31-6.15Z"/>
          <path d="M232.18,841.84c-.91-9.27,7.91-16.77,16.83-14.07,3.37,1.02,6.58,2.69,9.33,4.82,7.43,5.75,12.22,14.17,16.81,22.36,9.89,17.63,32.25,66.78-5.19,47.19-21.31-11.15-35.41-36.18-37.78-60.3Z"/>
        </g>
      </g>
    </g>
  </g>
</svg>