<?xml version="1.0" encoding="UTF-8"?><svg xmlns="http://www.w3.org/2000/svg" xmlns:xlink="http://www.w3.org/1999/xlink" viewBox="0 0 506.3 979.39"><defs><style>.cls-1{fill:none;}.cls-2{fill:#97cafd;mix-blend-mode:multiply;opacity:.4;}.cls-3{isolation:isolate;}.cls-4{fill:#fdca04;}.cls-5{fill:#d8eff2;}.cls-6{fill:#cafffd;}.cls-7{clip-path:url(#clippath);}</style><clipPath id="clippath"><rect class="cls-1" y="256.98" width="506.3" height="569.83"/></clipPath></defs><g class="cls-3"><g id="_レイヤー_2"><g id="Bottle"><g class="cls-7"><path class="cls-6" d="M442.19,247.38v-109.86C442.19,61.57,379.15,0,301.38,0h-126.98C96.63,0,33.58,61.57,33.58,137.52v109.86c0,23.24,10.68,44.02,27.51,57.96,13.87,11.49,21.55,28.57,21.55,46.33v10.38c0,17.76-7.68,34.84-21.55,46.33-16.83,13.94-27.51,34.73-27.51,57.96v345.26c0,75.95,63.05,137.52,140.82,137.52h126.98c77.77,0,140.82-61.57,140.82-137.52v-345.26c0-23.24-10.68-44.02-27.51-57.96-13.87-11.49-21.55-28.57-21.55-46.33v-10.38c0-17.76,7.68-34.84,21.55-46.33,16.83-13.94,27.51-34.73,27.51-57.96Z"/><path class="cls-2" d="M443.13,335.61c16.83-13.94,27.51-34.73,27.51-57.96v-47.22c0-18.73-15.19-33.92-33.92-33.92H95.94c-18.73,0-33.92,15.19-33.92,33.92v47.22c0,23.24,10.68,44.03,27.51,57.96,13.87,11.49,21.55,28.57,21.55,46.33v10.38c0,17.76-7.68,34.84-21.55,46.33-16.83,13.94-27.51,34.73-27.51,57.96v345.26c0,75.95,63.04,137.52,140.82,137.52h126.98c77.77,0,140.82-61.57,140.82-137.52v-345.26c0-23.24-10.68-44.02-27.51-57.96-13.87-11.49-21.55-28.57-21.55-46.33v-10.39c0-17.76,7.68-34.84,21.55-46.33Z"/><path class="cls-5" d="M37.2,741.06c25.64,21.52,62.62,20.87,96.05,19.1,23.21-1.23,48.81-3.5,64.91-20.27,5.34-5.57,9.24-12.41,14.69-17.87,18.37-18.4,48.64-16.71,71.62-28.87,2.82-1.49,5.64-3.31,7.21-6.08,1.9-3.35,1.63-7.45,1.32-11.29-1.09-13.28-2.19-26.56-3.28-39.85-.33-4.06-.59-8.45,1.6-11.87,2.1-3.28,5.95-4.9,9.57-6.34l30.06-11.93c15.23-6.04,23.2-22.51,19.1-38.38-2.06-8-1.61-15.85,3.62-22.29,4.48-5.51,11.43-8.22,17.46-11.97,6.03-3.75,11.76-9.86,10.98-16.91-1.26-11.46-16.53-14.03-28.06-14.23-25.43-.46-50.8-4.27-75.24-11.3-7.39-2.13-15.03-4.75-19.69-11.23-1.89-2.63-2.96-5.8-2.87-9.03.22-7.62,6.04-10.64,11.45-13.3.97-.48,1.94-.95,2.91-1.43,12.31-6.05,9.65-24.55-3.92-26.58-1.94-.29-3.88-.47-5.81-.54-12.41-.46-24.74,2.48-37.15,2.33-18.84-.23-37.45-7.53-56.11-4.97-15.99,2.19-30.01,11.34-44.7,18.04-26.74,12.2-56.36,20.24-85.43,15.91l-.3,281.17Z"/><path class="cls-4" d="M138.42,543.55c10.95.68,22.56,4.76,29.75,12.59,3.68,4.02,2.17,10.48-2.85,12.62-20.34,8.68-42.92,12.13-64.92,9.8-1.87-.2-3.68-.86-5.21-1.95-5.29-3.81-.84-5.75,4.67-7.39,3.49-1.04,3.15-6.1-.45-6.66-5.86-.9-11.78-2.11-14.33-6.96-5.98-11.38,12.68-9.43,18.98-9.86,11.45-.78,22.83-2.91,34.35-2.19Z"/><path d="M116.4,547.66c-.33-3.31,2.82-5.98,6-5.02,1.2.36,2.35.96,3.33,1.72,2.65,2.05,4.36,5.05,6,7.97,3.53,6.29,11.5,23.82-1.85,16.83-7.6-3.98-12.63-12.91-13.48-21.51Z"/></g></g></g></g></svg>