<?xml version="1.0" encoding="UTF-8"?><svg id="_レイヤー_2" xmlns="http://www.w3.org/2000/svg" xmlns:xlink="http://www.w3.org/1999/xlink" viewBox="0 0 424.14 344.76"><defs><style>.cls-1{fill:url(#_名称未設定グラデーション_2);}.cls-2{fill:#fff;}.cls-3{fill:#fdca04;}.cls-4{fill:none;stroke:#fff;stroke-linecap:round;stroke-linejoin:round;stroke-width:2.83px;}.cls-5{opacity:.5;}.cls-6{fill:#bc4a36;}</style><radialGradient id="_名称未設定グラデーション_2" cx="-2359.25" cy="-359.3" fx="-2359.25" fy="-359.3" r="112.07" gradientTransform="translate(580.65 -2153.62) rotate(-90)" gradientUnits="userSpaceOnUse"><stop offset="0" stop-color="#868686"/><stop offset="1" stop-color="#b2b2b3" stop-opacity=".2"/></radialGradient></defs><g id="Cat"><path class="cls-2" d="M361.87,69.66c-14.51-93.26-9.59-78.57-87.14-38.54-16.44-3.44-33.7-5.28-51.51-5.28-42.9,1.34-93.01,14.01-131.05-11.79-34.09-8.77-11.56,42.89-9.67,57.21-133.38,102.68-26.92,278.57,140.73,273.39,169.01,5.28,274.85-173.24,138.64-274.99Z"/><g class="cls-5"><path class="cls-1" d="M221.35,91.19c11.73,0,21.28,12.92,31.87,16.36s26.27-1.15,35.4,5.5,9.44,22.76,16.15,31.99,21.88,14.26,25.45,25.23c3.44,10.59-5.77,23.64-5.77,35.37s9.2,24.79,5.77,35.37c-3.56,10.97-18.8,16.1-25.45,25.23s-6.92,25.28-16.15,31.99c-9.13,6.65-24.43,1.93-35.4,5.5s-20.14,16.36-31.87,16.36-21.28-12.92-31.87-16.36c-10.97-3.56-26.27,1.15-35.4-5.5s-9.44-22.76-16.15-31.99c-6.65-9.13-21.88-14.26-25.45-25.23s5.77-23.64,5.77-35.37-9.2-24.79-5.77-35.37c3.56-10.97,18.8-16.1,25.45-25.23,6.71-9.23,6.92-25.28,16.15-31.99,9.13-6.65,24.43-1.93,35.4-5.5,10.59-3.44,20.14-16.36,31.87-16.36Z"/></g><path class="cls-4" d="M180.26,220.32c31.11,10.75,66.2,9.52,96.48-3.4"/><path class="cls-3" d="M148.25,145.98c-4.46-3.09-9.68-5.26-15.1-5.48-5.42-.22-11.04,1.68-14.71,5.68-3.67,4-5.04,10.17-2.78,15.11,2.45,5.35,8.33,8.21,13.98,9.85,3.47,1,7.03,1.71,10.63,2.09,3.98.43,8.16.45,11.81-1.21,12.75-5.8,4.13-20.54-3.83-26.04Z"/><ellipse cx="136.56" cy="156.98" rx="5.94" ry="16.33"/><ellipse cx="223.23" cy="178.65" rx="23.41" ry="14.03"/><path class="cls-2" d="M72.61,93.51c-3.79-5.4-4.55-11.91-4.97-18.31-.72-11.22-1.25-22.48-1.2-33.72.04-9.35,2.25-18.39,6.46-26.85,2.89-5.8,4.67-6.69,10.84-4.38,8.29,3.11,16.6,6.2,24.67,9.8,10.22,4.56,20.22,9.61,30.31,14.48,1.13.55,2.15,1.3,3.78,2.3-4.04,4.56-7.71,8.96-11.65,13.09-11.91,12.48-25.63,22.56-40.7,31-6.15,3.44-11.54,8.23-17.55,12.6Z"/><path class="cls-6" d="M4.23,242.99c.09-.41.17-.83.26-1.24,18.96-2.01,37.97-3.2,56.99-4.3.05.57.1,1.15.14,1.72-18.86,1.29-37.71,2.58-56.57,3.88-.28,0-.55-.03-.82-.06Z"/><path class="cls-6" d="M.09,192.15c-.03-.71-.06-1.41-.09-2.12,21.72,3.06,43.45,6.13,65.17,9.18.83.12,1.8-.12,2.21,1.86-22.6-3-44.94-5.96-67.29-8.93Z"/><path class="cls-6" d="M10.73,142.31c9.37,1.27,49.96,20.4,58.7,23.75l-.21.34c-9.32-1.44-50.02-20.16-58.68-23.75,0,0,.19-.33.19-.33Z"/><path class="cls-3" d="M288.51,145.98c4.46-3.09,9.68-5.26,15.1-5.48,5.42-.22,11.04,1.68,14.71,5.68s5.04,10.17,2.78,15.11c-2.45,5.35-8.33,8.21-13.98,9.85-3.47,1-7.03,1.71-10.63,2.09-3.98.43-8.16.45-11.81-1.21-12.75-5.8-4.13-20.54,3.83-26.04Z"/><ellipse cx="300.19" cy="156.98" rx="5.94" ry="16.33"/></g></svg>