<?xml version="1.0" encoding="UTF-8"?><svg id="_レイヤー_2" xmlns="http://www.w3.org/2000/svg" viewBox="0 0 14 14"><defs><style>.cls-1{fill:none;}.cls-2{fill:#333;}</style></defs><g id="panel_layout"><rect class="cls-2" width="2" height="2"/><rect class="cls-1" y="2" width="2" height="2"/><rect class="cls-2" y="4" width="2" height="2"/><rect class="cls-1" y="6" width="2" height="2"/><rect class="cls-2" y="8" width="2" height="2"/><rect class="cls-1" y="10" width="2" height="2"/><rect class="cls-2" y="12" width="2" height="2"/><rect class="cls-1" x="2" width="2" height="2"/><rect class="cls-2" x="2" y="2" width="2" height="2"/><rect class="cls-1" x="2" y="4" width="2" height="2"/><rect class="cls-2" x="2" y="6" width="2" height="2"/><rect class="cls-1" x="2" y="8" width="2" height="2"/><rect class="cls-2" x="2" y="10" width="2" height="2"/><rect class="cls-1" x="2" y="12" width="2" height="2"/><rect class="cls-1" x="6" width="2" height="2"/><rect class="cls-2" x="6" y="2" width="2" height="2"/><rect class="cls-1" x="6" y="4" width="2" height="2"/><rect class="cls-2" x="6" y="6" width="2" height="2"/><rect class="cls-1" x="6" y="8" width="2" height="2"/><rect class="cls-2" x="6" y="10" width="2" height="2"/><rect class="cls-1" x="6" y="12" width="2" height="2"/><rect class="cls-2" x="4" width="2" height="2"/><rect class="cls-1" x="4" y="2" width="2" height="2"/><rect class="cls-2" x="4" y="4" width="2" height="2"/><rect class="cls-1" x="4" y="6" width="2" height="2"/><rect class="cls-2" x="4" y="8" width="2" height="2"/><rect class="cls-1" x="4" y="10" width="2" height="2"/><rect class="cls-2" x="4" y="12" width="2" height="2"/><rect class="cls-2" x="8" width="2" height="2"/><rect class="cls-1" x="8" y="2" width="2" height="2"/><rect class="cls-2" x="8" y="4" width="2" height="2"/><rect class="cls-1" x="8" y="6" width="2" height="2"/><rect class="cls-2" x="8" y="8" width="2" height="2"/><rect class="cls-1" x="8" y="10" width="2" height="2"/><rect class="cls-2" x="8" y="12" width="2" height="2"/><rect class="cls-1" x="10" width="2" height="2"/><rect class="cls-2" x="10" y="2" width="2" height="2"/><rect class="cls-1" x="10" y="4" width="2" height="2"/><rect class="cls-2" x="10" y="6" width="2" height="2"/><rect class="cls-1" x="10" y="8" width="2" height="2"/><rect class="cls-2" x="10" y="10" width="2" height="2"/><rect class="cls-1" x="10" y="12" width="2" height="2"/><rect class="cls-2" x="12" width="2" height="2"/><rect class="cls-1" x="12" y="2" width="2" height="2"/><rect class="cls-2" x="12" y="4" width="2" height="2"/><rect class="cls-1" x="12" y="6" width="2" height="2"/><rect class="cls-2" x="12" y="8" width="2" height="2"/><rect class="cls-1" x="12" y="10" width="2" height="2"/><rect class="cls-2" x="12" y="12" width="2" height="2"/></g></svg>