<?xml version="1.0" encoding="UTF-8"?><svg id="_レイヤー_2" xmlns="http://www.w3.org/2000/svg" viewBox="0 0 44.24 13.51"><g id="layout"><path d="M27.84,3.22h-2.56v1.39h2.42v1.83h-2.42v1.43h2.56v1.83h-4.72V1.39h4.72v1.83Z"/><path d="M32.14,8.92l-2.73-4.87h2.31l1.51,2.89,1.46-2.89h2.29l-4.53,8.46h-2.23l1.93-3.59Z"/><path d="M40.04,7.2c0,.86.4,1.29,1.21,1.29.43,0,.76-.18.98-.53h1.92c-.39,1.29-1.36,1.94-2.92,1.94-.48,0-.91-.07-1.31-.21-.4-.14-.74-.35-1.02-.61-.28-.26-.5-.58-.65-.95-.15-.37-.23-.78-.23-1.23s.07-.89.22-1.27.36-.7.63-.96c.27-.26.6-.47.98-.61.39-.14.82-.21,1.3-.21s.91.07,1.29.21c.38.14.7.35.97.62.26.27.47.6.61,1,.14.39.21.83.21,1.33v.21h-4.19ZM42.38,6.05c-.07-.28-.2-.5-.41-.67-.21-.17-.46-.25-.75-.25-.31,0-.56.08-.75.24-.19.16-.32.39-.37.68h2.28Z"/><path d="M11.81,13.51c-.5,0-1.05-.04-1.66-.1-1.46-.17-2.91-.48-4.31-.91-2.83-.88-4.66-2.24-5.44-4.05C-.41,6.53.03,4.02,1.47,2.33,2.78.8,4.9-.11,7.1.01c1.95.08,4,.89,5.94,2.33,2.17,1.61,4.27,4.84,4.03,7.46-.13,1.37-.91,2.42-2.34,3.12-.81.4-1.74.59-2.92.59ZM6.77,1c-1.78,0-3.48.74-4.54,1.98-1.2,1.41-1.57,3.49-.9,5.06.65,1.53,2.27,2.7,4.81,3.49,1.34.42,2.73.71,4.13.87,1.8.21,3.04.09,4.02-.39,1.12-.55,1.69-1.28,1.78-2.31.2-2.17-1.71-5.15-3.63-6.57-1.78-1.32-3.64-2.05-5.39-2.13-.1,0-.19,0-.29,0Z"/><ellipse cx="8.54" cy="6.75" rx="2.47" ry="5.74"/></g></svg>