<?xml version="1.0" encoding="UTF-8"?><svg id="_レイヤー_2" xmlns="http://www.w3.org/2000/svg" viewBox="0 0 44.1 12.41"><g id="layout"><path d="M29.71,4.4h-2.6v1.39h2.37v1.83h-2.37v3.26h-2.16V2.57h4.75v1.83Z"/><path d="M33.61,5.22v3.18c0,.7.34,1.04,1.01,1.04s1.01-.35,1.01-1.04v-3.18h1.99v3.56c0,.76-.25,1.33-.75,1.72-.5.38-1.25.57-2.25.57s-1.75-.19-2.25-.57c-.5-.38-.75-.95-.75-1.72v-3.56h1.99Z"/><path d="M39.86,5.22h1.99v.92c.21-.34.47-.6.78-.78.31-.18.67-.27,1.08-.27h.17c.06,0,.13,0,.21.02v1.9c-.26-.13-.55-.2-.86-.2-.46,0-.81.14-1.04.41-.23.27-.35.68-.35,1.2v2.42h-1.99v-5.64Z"/><path d="M17.44,12.41c-.53-5.35.98-12.41.98-12.41-2.01,1.7-3.45,3.4-4.42,5.63-.31.71-.57,1.47-.79,2.31.22-4.14,1.04-7.94,1.04-7.94-2.01,1.7-3.45,3.4-4.42,5.63-.31.71-.57,1.47-.79,2.31.22-4.14,1.04-7.94,1.04-7.94-2.01,1.7-3.45,3.4-4.42,5.63-.31.71-.57,1.47-.79,2.31.22-4.14,1.04-7.94,1.04-7.94C3.9,1.7,2.46,3.4,1.49,5.63c-.79,1.82-1.27,3.98-1.49,6.78h17.44Z"/></g></svg>