<?xml version="1.0" encoding="UTF-8"?>
<svg id="_レイヤー_2" data-name="レイヤー 2" xmlns="http://www.w3.org/2000/svg" viewBox="0 0 199.36 16.89">
  <defs>
    <style>
      .cls-1 {
        fill: #333;
      }
    </style>
  </defs>
  <g id="_編集モード" data-name="編集モード">
    <g>
      <path class="cls-1" d="M6.1,10.2c-.04.13-.07.24-.07.39,0,.41.18.66.48.9.35.29,1.01.9,1.01,1.09,0,.42-.98,1.82-1.4,1.82-.15,0-.72-.59-.85-.74-.09-.07-.2-.18-.33-.18-.18,0-.29.2-.37.35-.42.79-1.16,1.8-1.79,2.45-.17.18-.35.35-.61.35-.41,0-1.88-.85-1.88-1.29,0-.18.22-.41.35-.53,1.03-1.05,1.38-1.6,2.12-2.85.04-.07.07-.11.07-.2,0-.13-.09-.26-.24-.26-.17,0-.24.15-.29.24-.07.09-.2.13-.31.13-.46,0-1.99-.57-1.99-.99,0-.06.13-.48.17-.61.41-1.14.96-3.35,1.05-3.74.04-.11.07-.28.07-.33,0-.18-.13-.39-.33-.39h-.17c-.41,0-.44-.22-.44-.74v-1.16c0-.55.04-.75.48-.75.18,0,.5.02.64.02.2,0,.41-.17.46-.35.06-.17.22-1.62.24-1.88.07-.7.09-.87.31-.87.17,0,1.33.24,1.64.28.87.11,1.11.18,1.11.42,0,.17-.15.26-.28.31-.26.11-.28.17-.33.68-.02.2-.04.46-.09.81-.02.07-.02.15-.02.22,0,.35.17.41.48.41.29,0,.59-.02.9-.02.68,0,1.11.11,1.11.9,0,1.75-.35,4.46-.9,6.11ZM4.22,5.76c-.24,0-.29.26-.33.46-.17.76-.35,1.53-.55,2.28-.04.11-.06.18-.06.29,0,.17.09.42.29.42.37,0,.44-.53.52-.81.13-.48.35-1.92.35-2.39,0-.15-.06-.26-.22-.26ZM14.11,7.35c.7,0,1.38-.06,2.06-.06.5,0,.53.22.53.77v.94c0,.55-.04.77-.52.77-.7,0-1.38-.04-2.08-.04h-.28c-.44,0-.7.11-.7.61v2.54c0,.5.04.99.04,1.49,0,2.17-1.82,2.45-3.57,2.45-.74,0-1.01-.07-1.2-.53-.2-.48-.29-1.16-.29-1.68,0-.31.06-.55.42-.55.13,0,.33.02.46.04.24.04.55.06.79.06.64,0,.66-.09.66-.99v-2.85c0-.39-.2-.57-.57-.57h-.31c-.68,0-1.38.04-2.06.04-.5,0-.53-.22-.53-.77v-.48c0-1.01,0-1.23.53-1.23.68,0,1.38.06,2.06.06h.28c.33,0,.61-.13.61-.5v-.44c0-.41-.02-.92-.06-1.31-.02-.06-.02-.13-.02-.18,0-.22.13-.28.33-.28.24,0,.33-.11.72-.5.13-.13.7-.68.7-.83,0-.13-.09-.13-.52-.13h-1.73c-.63,0-1.23.06-1.8.06-.42,0-.48-.18-.48-.68v-1.1c0-.52.04-.72.48-.72.55,0,1.18.06,1.8.06h3.13c.72,0,1.42-.04,2.14-.04.46,0,.74.11,1.03.48.15.2.41.63.41.87,0,.74-2.34,2.71-2.96,3.2-.42.35-.48.66-.48,1.07v.46c0,.31.2.52.57.52h.41Z"/>
      <path class="cls-1" d="M37.73,13.18c0,.44.06.88.06,1.33,0,2.03-1.42,2.36-3.13,2.36-.52,0-.88,0-1.09-.31-.24-.35-.35-.94-.35-1.36,0-.29.02-.85.42-.85.22,0,.55.07.96.07.53,0,.53-.15.53-.81v-3.37c0-.28-.24-.52-.52-.52h-8.16c-.77,0-1.55.04-2.34.04-.41,0-.44-.18-.44-.72v-.81c0-.53.04-.72.44-.72.79,0,1.57.04,2.34.04h10.74c.77,0,1.57-.04,2.34-.04.41,0,.44.17.44.64v.96c0,.44-.04.64-.42.64-.42,0-.85-.02-1.27-.02-.39,0-.55.26-.55.61v2.84ZM33.03,1.22c0,.31.22.37.46.37h2.61c.72,0,1.44-.04,2.15-.04.46,0,.5.15.5.64v.96c0,.55-.04.68-.52.68-.72,0-1.44-.06-2.14-.06h-1.4c-.2,0-.31.02-.31.11,0,.06.06.11.18.18,1.25.7,2.21.98,3.63,1.2.55.09.63.09.63.37,0,.59-.52,1.79-1.2,1.79-.41,0-1.25-.22-1.68-.35-1.31-.39-2.8-1.22-3.76-2.1-.13-.13-.24-.2-.42-.2-.22,0-.39.2-.55.37-.88.83-2.04,1.4-3.17,1.77-.48.17-1.69.5-2.17.5-.72,0-1.22-1.53-1.22-1.77,0-.31.22-.29.92-.39,1.07-.13,2.43-.53,3.28-1.14.13-.09.22-.18.22-.24,0-.09-.11-.09-.24-.09h-1.45c-.72,0-1.44.06-2.15.06-.48,0-.52-.15-.52-.7v-.87c0-.55.04-.72.5-.72.72,0,1.45.04,2.17.04h2.34c.66,0,.72-.18.72-1.03,0-.31.06-.42.28-.42.48,0,1.84.11,2.3.17.31.04.52.09.52.28,0,.15-.17.24-.28.29-.13.07-.24.15-.24.35ZM29.4,15.14c-.35,0-.5.15-.5.5v.26c0,.33-.15.37-.63.37h-1.18c-.46,0-.66-.04-.66-.33,0-.22.06-1.05.06-1.51v-2.04c0-.46-.04-.87-.04-1.22,0-.59.52-.68,1.31-.68.52,0,1.03.04,1.53.04h.88c.52,0,1.05-.04,1.55-.04.74,0,1.31.07,1.31.66,0,.18-.04.7-.04,1.23v.9c0,.53.04,1.03.04,1.22,0,.61-.61.68-1.33.68-.5,0-1.01-.04-1.53-.04h-.77ZM28.87,12.89c0,.2.15.37.35.37h1.01c.18,0,.35-.17.35-.37v-.17c0-.2-.17-.35-.35-.35h-1.01c-.2,0-.35.15-.35.35v.17Z"/>
      <path class="cls-1" d="M49.71,5.82c.96.26,1.45.44,1.45.64,0,.17-.15.24-.28.29-.24.11-.29.17-.33.41-.29,1.53-.94,3.85-1.45,5.28-.09.24-.24.7-.53.7-.42,0-2.1-.64-2.1-1.18,0-.09.11-.39.18-.57.02-.06.04-.09.06-.13.74-1.82,1.22-3.42,1.4-5.4.02-.18.07-.37.31-.37.17,0,1.07.26,1.29.31ZM54.15,12.85c0,.99.15,1.05,1.12,1.05h2.01c.92,0,1.23-.06,1.47-1.57.07-.42.07-.85.48-.85.2,0,2.23.41,2.23,1.33,0,.64-.68,2.28-1.05,2.84-.53.83-1.22.85-2.12.85h-4.18c-1.36,0-2.69-.28-2.69-1.95,0-.55.02-1.09.02-1.64v-7.48c0-.5-.06-.83-.06-.96,0-.33.13-.35.37-.35.44,0,1.91.06,2.36.07.2,0,.44.09.44.26,0,.11-.09.17-.22.26-.17.13-.17.31-.17.5,0,.09-.02.55-.02.87v6.78ZM54.43.07c.39,0,1.9,1.2,2.27,1.49.33.26,1.93,1.53,1.93,1.88,0,.5-1.14,1.62-1.64,1.62-.17,0-.33-.18-.46-.31-1.4-1.25-1.97-1.71-3.54-2.76-.11-.07-.29-.2-.29-.35,0-.24,1.16-1.57,1.73-1.57ZM61.35,5.34c.42.79.81,1.75,1.14,2.6.17.44.96,2.65.96,2.98,0,.57-1.58,1.12-2.06,1.12-.31,0-.39-.2-.46-.46-.59-2.1-.99-3.19-1.92-5.16-.06-.13-.15-.28-.15-.41,0-.48,1.73-1.01,1.99-1.01.29,0,.39.15.5.33Z"/>
      <path class="cls-1" d="M72.01,3.3c.17-.59.33-1.05.48-1.66.04-.17.09-.35.28-.35s2.34.96,2.67,1.1.44.26.44.37-.07.15-.17.18c-.48.18-.61.46-.85.94-.7,1.42-1.11,3.76-1.11,5.51,0,.39,0,.77.18.77.15,0,.2-.13.26-.24.18-.44.29-.66.46-.66.26,0,1.2.61,1.2.88,0,.33-1.03,2.36-1.03,3.61,0,.2.04.52.06.74.02.11.02.24.02.33,0,.5-.57.77-.98.94-.24.09-.66.24-.94.24-.33,0-.5-.29-.7-.7-.88-1.86-1.14-3.87-1.14-5.91s.33-4.12.87-6.09ZM82.36,1.68c.09.02.24.06.24.18,0,.09-.06.2-.15.33-.31.48-.33,1.07-.33,1.62,0,.26.13.44.41.44.2,0,1.09-.24,1.36-.31.13-.04.39-.11.48-.11.28,0,.35.37.41.64.11.5.22,1.09.22,1.53s-.17.55-2.19.83c-.41.06-.61.15-.61.61,0,.24.11,2.74.13,3,.04.44.2.48.66.72.64.35,1.44.9,1.97,1.4.22.22.42.44.42.77,0,.52-.9,1.69-1.45,1.69-.28,0-.55-.24-.94-.61-.07-.07-.15-.13-.22-.2-.11-.11-.22-.22-.37-.22-.17,0-.22.09-.35.29-.57.92-1.86,1.22-2.87,1.22-1.68,0-3.35-.83-3.35-2.73s1.55-2.63,3.17-2.63h.42c.31,0,.44-.18.44-.46,0-.42-.09-1.29-.09-1.58,0-.63-.07-.92-.48-.92-.33,0-1.6.07-2.38.07h-.28c-.42,0-.79-.04-.92-.18-.15-.18-.17-1.73-.17-2.06,0-.24.06-.5.35-.5.11,0,.68.06.85.07.75.07,1.51.11,2.25.11.29,0,.53-.11.53-.44,0-.39-.2-2.21-.2-2.61,0-.22.07-.31.29-.31.39,0,2.28.28,2.74.35ZM78.2,12.83c0,.37.59.55.98.55.42,0,.83-.15.83-.64,0-.37-.57-.39-.85-.39s-.96.07-.96.48Z"/>
      <path class="cls-1" d="M97.95,14.38c0,.53-1.33,1.95-1.84,1.95-.18,0-.31-.18-.41-.31-.87-1.05-1.9-1.93-3.02-2.71-.09-.06-.18-.15-.18-.26,0-.35,1.33-1.79,1.73-1.79.37,0,3.72,2.65,3.72,3.11Z"/>
      <path class="cls-1" d="M109.04,10.79c-.2.28-1.42,1.68-1.68,1.68-.33,0-1.29-1.51-1.29-1.92,0-.15.13-.26.24-.35.52-.44,2.74-2.67,2.74-3.24,0-.11-.11-.5-.15-.63-.06-.17-.11-.33-.31-.33-.18,0-.37.17-.48.29-.04.04-.07.06-.13.11-.18.17-.44.39-.64.39-.35,0-1.36-1.45-1.36-1.8,0-.17.17-.29.29-.39.31-.24.83-.66,1.12-.94.09-.09.17-.22.17-.37,0-.28-.85-1.34-1.05-1.6-.07-.09-.11-.18-.11-.29,0-.44,1.25-1.18,1.64-1.18.28,0,.72.61.87.83.07.11.17.22.31.22.26,0,.5-.52.61-.72.06-.11.13-.22.26-.22.11,0,.59.26.9.42.09.06.17.09.2.11.37.2,1.09.55,1.09.79,0,.13-.15.18-.24.2-.2.04-.29.18-.5.5-.15.22-.33.5-.64.88-.15.2-.29.39-.29.64,0,.24.09.48.18.7.79,2.04,1.05,4.31,1.05,6.48,0,1.38-.02,3.35-.79,4.53-.64.98-1.97,1.22-3.06,1.22h-.15c-.55,0-1.1-.11-1.1-1.84,0-.35.02-.83.48-.83.17,0,.48.07.88.07.68,0,.96-.31,1.14-.94.22-.72.24-1.68.24-2.43,0-.13-.02-.24-.18-.24-.09,0-.18.11-.26.18ZM117.19,4.42c-.46,0-.59.28-.59.48,0,.26.02.52.02.77,0,.41-.2.44-.75.44h-1.07c-.61,0-.74-.04-.74-.55,0-.11.02-.29.02-.39v-.11c0-.2-.04-.63-.5-.63-.31,0-.63.02-.96.02-.46,0-.5-.2-.5-.75v-.96c0-.55.04-.74.53-.74.29,0,.68.04.98.04.28,0,.48-.28.48-.55,0-.26-.02-.74-.06-.98v-.15c0-.2.15-.24.33-.24.31,0,1.51.09,1.86.13.39.04.75.04.75.28,0,.07-.04.11-.18.24-.2.15-.24.18-.24.79,0,.26.17.48.55.48h.5c.37,0,.59-.18.59-.55,0-.26-.02-.74-.06-.98v-.15c0-.2.17-.24.33-.24.31,0,1.51.09,1.86.13.39.04.75.04.75.28,0,.07-.04.11-.18.24-.18.13-.24.18-.24.74,0,.29.26.53.53.53.33,0,.68-.04,1.01-.04.44,0,.5.18.5.66v.72c0,.98-.02,1.07-.5,1.07-.24,0-.57-.04-1.07-.04-.2,0-.46.2-.46.48,0,.2.02.55.02.79,0,.39-.22.42-.77.42h-1.05c-.52,0-.72-.04-.72-.44,0-.24.02-.48.02-.72,0-.28-.18-.53-.61-.53h-.41ZM112.66,9.11c0-.53-.04-1.05-.04-1.55,0-.7.44-.83,1.05-.83.57,0,1.14.04,1.71.04h4.11c.57,0,1.14-.04,1.71-.04s1.03.13,1.03.83c0,.44-.04.98-.04,1.55v5.38c0,.68.06,1.44.06,1.92,0,.44-.2.48-.76.48h-.96c-.61,0-.79-.04-.79-.48v-.24c0-.2-.13-.44-.52-.44h-3.63c-.35,0-.5.2-.5.44v.24c0,.44-.18.48-.75.48h-1.03c-.52,0-.7-.04-.7-.46,0-.64.04-1.29.04-1.93v-5.38ZM115.77,10.16c.26,0,.46-.18.46-.44v-.2c0-.26-.18-.44-.44-.44h-.28c-.26,0-.44.18-.44.44v.2c0,.26.18.44.44.44h.26ZM115.52,12.32c-.26,0-.44.2-.44.44v.29c0,.24.18.44.44.44h.28c.26,0,.44-.2.44-.44v-.29c0-.24-.2-.44-.46-.44h-.26ZM119.35,10.16c.24,0,.44-.18.44-.44v-.2c0-.26-.2-.44-.44-.44h-.29c-.24,0-.44.18-.44.44v.2c0,.26.22.44.46.44h.28ZM119.07,12.32c-.24,0-.46.2-.46.44v.29c0,.24.2.44.44.44h.29c.24,0,.44-.2.44-.44v-.29c0-.24-.2-.44-.44-.44h-.28Z"/>
      <path class="cls-1" d="M138.02.88c.33.15.57.28.57.44,0,.15-.2.2-.33.24-.22.09-.5.55-.5.7s.09.2.22.2c.28,0,1.11-.28,1.49-.41.15-.06.35-.13.52-.13.41,0,.5.39.57.72.09.37.22,1.1.22,1.49,0,.28-.17.35-1.18.53-1.01.18-2.27.41-3.41.53-.59.07-.63.48-.63.5,0,.09.09.13.17.13.04,0,.13-.04.17-.06.53-.18,1.01-.28,1.57-.28.44,0,.96.07,1.33.29.52.29.64.53.88,1.05.07.15.17.22.31.22.18,0,1.16-.55,1.71-.87.17-.09.29-.17.37-.2.07-.04.17-.09.24-.09.46,0,1.1,2.12,1.1,2.54,0,.24-.18.29-.55.42-.88.33-1.44.57-2.28.92-.44.18-.52.35-.52.85,0,.22.02.66.02,1.07,0,1.18-.02,1.2-1.05,1.2-1.27,0-1.66-.06-1.66-.63,0-.17.02-.33.04-.5v-.09c0-.13-.07-.26-.22-.26-.18,0-1.1.59-1.1,1.23,0,.92,1.57.92,2.21.92,1.18,0,2.27-.2,3.42-.46.17-.04.33-.06.46-.06.44,0,.46.66.46,1.84,0,.7-.04.88-.57.99-.83.17-2.67.22-3.57.22-1.29,0-2.14-.09-3.22-.59-1.18-.53-1.88-1.51-1.88-2.85,0-1.73,1.31-2.73,2.65-3.52.31-.18.68-.39,1.01-.55.17-.07.31-.17.31-.37,0-.26-.24-.48-.57-.48-.7,0-1.97.64-2.52,1.07-.87.68-1.42,1.66-1.95,2.61-.06.11-.13.2-.28.2-.41,0-2.28-1.03-2.28-1.47,0-.15.11-.26.33-.5.75-.87,1.95-2.78,2.54-3.61.09-.13.11-.18.11-.26,0-.15-.13-.26-.28-.26-.22,0-.48.02-.72.02-.63,0-.68-.06-.68-1.44,0-1.14.07-1.16.66-1.16.41,0,1.07.04,1.68.04.9,0,1.07-.07,1.22-.33.37-.64.72-1.6.87-2.28.06-.28.09-.41.28-.41.2,0,1.95.75,2.25.88Z"/>
      <path class="cls-1" d="M157.24,5.71c-.33,0-.53.22-.53.53v1.36c0,.09.04.2.15.2.22,0,.83-1.55.92-1.8.04-.11.07-.15.2-.15s.77.26,1.14.42c.59.26.87.41.87.57,0,.11-.11.18-.26.22-.13.04-.18.13-.26.28-.29.64-.66,1.49-1.07,2.06-.09.13-.18.24-.35.24-.22,0-.63-.18-.83-.29-.07-.04-.18-.07-.26-.07-.18,0-.26.22-.26.37v.41c0,.15.09.26.24.26.13,0,.35-.13.46-.2.11-.07.41-.2.59-.2.15,0,.24.07.33.17.33.37.7.87.98,1.27.2.28,1.03,1.51,1.03,1.77,0,.35-1.27,1.22-1.64,1.22-.17,0-.24-.09-.37-.31-.17-.31-1.2-2.14-1.45-2.14-.15,0-.17.22-.17.33v1.71c0,.33.04.66.04.98,0,1.79-1.57,1.97-2.98,1.97-.31,0-.79,0-.98-.28-.29-.46-.33-1.4-.33-1.93,0-.22.02-.48.37-.48.2,0,.55.06.9.06.5,0,.55-.06.55-.64v-.99c0-.13-.04-.37-.2-.37-.11,0-.26.13-.52.44-.29.35-.64.72-.98,1.05-.17.17-.22.2-.22.37v.04c0,.13-.06.33-.22.33-.31,0-1.68-1.47-1.68-1.79,0-.09.02-.09.46-.5.81-.72,1.42-1.53,2.1-2.36.06-.07.09-.11.18-.11.15,0,.37.17.48.26.15.11.26.18.37.18.17,0,.22-.18.22-.33v-3.59c0-.28-.22-.52-.52-.52h-.46c-.63,0-1.25.06-1.9.06-.5,0-.53-.22-.53-.79v-.9c0-.55.06-.75.57-.75.63,0,1.25.04,1.86.04h.44c.39,0,.53-.35.53-.68v-.88c0-.33-.02-.92-.06-1.25,0-.06-.02-.11-.02-.17,0-.22.15-.26.33-.26.29,0,1.79.13,2.14.17.17.02.41.06.41.26,0,.06,0,.09-.18.26-.17.15-.18.61-.18,1.07v.85c0,.35.15.64.53.64h.39c.13,0,.42,0,.42-.17,0-.24-.87-1.29-1.07-1.53-.11-.13-.17-.2-.17-.29,0-.37,1.22-1.18,1.58-1.18.17,0,.26.09.35.2.31.33.66.77.85,1.01.28.39.55.81.55.92,0,.22-.41.5-.59.61-.13.07-.26.2-.26.28s.04.09.33.11c.17.02.31.07.37.18.06.11.07.29.07.63v.83c0,.55-.04.81-.53.81-.64,0-1.27-.06-1.91-.06h-.39ZM152.6,6.04c.24.28.52.68.72.99.15.22.81,1.23.81,1.45,0,.35-1.31,1.16-1.68,1.16-.2,0-.28-.18-.35-.33-.39-.7-.81-1.38-1.31-2.03-.06-.07-.15-.2-.15-.31,0-.37,1.29-1.1,1.64-1.1.15,0,.22.07.31.17ZM165.21,3.59c.61,0,1.22-.04,1.66-.04s.48.18.48.72v1.01c0,.53-.04.72-.46.72-.15,0-.31-.02-.46-.02-.09,0-.2.06-.2.13,0,.11.18.18.28.2.15.04.41.09.41.29,0,.06-.04.13-.26.26-.28.15-.29.18-.37.79-.15,1.1-.52,2.38-1.01,3.55-.07.18-.15.41-.15.63,0,.29.11.42.61,1.01.57.68.94,1.05,1.58,1.64.11.09.26.22.26.37,0,.5-1.05,1.97-1.57,1.97-.26,0-1.14-.96-1.92-1.92-.15-.18-.35-.39-.61-.39-.2,0-.39.17-.72.52-.35.37-1.8,1.84-2.21,1.84-.53,0-1.53-1.22-1.53-1.66,0-.15.11-.24.28-.37.72-.52,1.4-1.16,1.95-1.79.48-.55.68-.83.68-1.22,0-.33-.28-.92-.41-1.27-.09-.26-.13-.41-.24-.41-.06,0-.11.07-.17.13-.04.06-.11.09-.18.09-.35,0-1.69-1.22-1.69-1.68,0-.17.29-.68.39-.85,1.03-1.99,1.84-5.23,2.06-7.46.02-.18.04-.35.26-.35.15,0,1.16.22,2.03.42.48.11.68.18.68.37,0,.09-.09.18-.35.26-.13.04-.18.13-.22.31-.06.31-.13.7-.17.87-.06.26-.13.61-.13.83,0,.41.29.46.63.46h.79ZM164.03,6.33c0-.26-.24-.37-.46-.37-.68,0-.88.72-.88,1.16,0,.35.35,1.8.68,1.8s.53-1.47.57-1.75c0-.09.09-.81.09-.85Z"/>
      <path class="cls-1" d="M185.85,9.08c0,3.09-2.38,5.76-5.01,7.14-.29.17-.99.5-1.33.5-.79,0-1.91-1.93-1.91-2.26,0-.18.18-.26.33-.29,1.31-.39,2.41-.9,3.41-1.82.88-.81,1.55-1.82,1.55-3.06s-.9-1.95-2.08-1.95c-1.42,0-2.73.77-3.81,1.62-.09.09-.26.18-.39.18-.61,0-1.44-1.9-1.44-2.5,0-.29.29-.44.52-.55,1.47-.74,3.65-1.45,5.3-1.45,2.74,0,4.86,1.57,4.86,4.46ZM178.56.64c1.18.57,3.48.87,4.81.96.44.04.61.07.61.31,0,.17-.07.63-.15,1.09-.09.61-.2,1.36-.74,1.36-.92,0-3.5-.57-4.44-.83-1.16-.31-1.47-.41-1.47-.7,0-.37.39-1.42.53-1.8.07-.2.18-.52.46-.52.13,0,.28.07.39.13Z"/>
      <path class="cls-1" d="M199.36,13.55c0,1.45-1.18,2.63-2.63,2.63s-2.61-1.18-2.61-2.63,1.16-2.63,2.61-2.63,2.63,1.18,2.63,2.63ZM195.18,13.55c0,.85.7,1.55,1.55,1.55s1.57-.7,1.57-1.55-.7-1.55-1.57-1.55-1.55.68-1.55,1.55Z"/>
    </g>
  </g>
</svg>