<?xml version="1.0" encoding="UTF-8"?>
<svg id="_レイヤー_2" data-name="レイヤー 2" xmlns="http://www.w3.org/2000/svg" viewBox="0 0 384.62 32.31">
  <defs>
    <style>
      .cls-1 {
        fill: #333;
      }
    </style>
  </defs>
  <g id="_編集モード" data-name="編集モード">
    <g>
      <path class="cls-1" d="M3.59,21.97c1.08,1.06,2.33,1.88,3.75,2.47,1.42.58,2.9.88,4.45.88.75,0,1.52-.07,2.29-.22.77-.15,1.61-.38,2.5-.7l.6-.21v-6.9c-1.49,1.59-3.16,2.38-5.03,2.38-.85,0-1.65-.16-2.38-.48-.73-.32-1.37-.75-1.92-1.31-.55-.55-.97-1.21-1.28-1.96-.31-.75-.46-1.58-.46-2.47s.15-1.69.46-2.44c.31-.75.73-1.4,1.26-1.95.54-.55,1.18-.98,1.92-1.29s1.55-.48,2.42-.48c1.98,0,3.65.82,5,2.47V2.8c-.95-.4-1.86-.69-2.72-.88-.86-.19-1.74-.28-2.63-.28-1.57,0-3.06.29-4.49.88-1.43.59-2.68,1.4-3.76,2.44-1.08,1.04-1.94,2.28-2.59,3.72-.64,1.44-.97,3.02-.97,4.75s.33,3.32.98,4.78c.65,1.46,1.52,2.72,2.6,3.78Z"/>
      <path class="cls-1" d="M22.92,23.71c1.36,1.03,3.39,1.55,6.08,1.55s4.73-.52,6.08-1.55c1.36-1.03,2.04-2.58,2.04-4.64v-9.64h-5.39v8.6c0,1.88-.91,2.83-2.74,2.83s-2.74-.94-2.74-2.83v-8.6h-5.39v9.64c0,2.06.68,3.61,2.04,4.64Z"/>
      <path class="cls-1" d="M46.71,18.15c0-1.43.31-2.51.94-3.26.62-.74,1.56-1.12,2.81-1.12.83,0,1.61.18,2.32.54v-5.15c-.22-.04-.41-.06-.58-.06h-.46c-1.11,0-2.08.24-2.92.73-.83.49-1.54,1.19-2.11,2.1v-2.5h-5.39v15.26h5.39v-6.55Z"/>
      <path class="cls-1" d="M56.26,5.71c.28.28.6.5.97.65.37.16.76.24,1.18.24s.81-.08,1.18-.24c.37-.16.69-.38.97-.65s.5-.6.65-.97c.16-.37.24-.76.24-1.18s-.08-.81-.24-1.18c-.16-.37-.38-.69-.65-.97-.28-.28-.6-.5-.97-.65-.37-.16-.76-.24-1.18-.24s-.81.08-1.18.24c-.37.16-.69.38-.97.65s-.5.6-.65.97c-.16.37-.24.76-.24,1.18s.08.81.24,1.18c.16.37.38.69.65.97Z"/>
      <rect class="cls-1" x="55.73" y="9.43" width="5.39" height="15.26"/>
      <path class="cls-1" d="M67.32,22.97c.8.73,1.76,1.3,2.87,1.7,1.11.4,2.32.6,3.63.6s2.56-.2,3.7-.6c1.14-.4,2.12-.96,2.93-1.68.81-.72,1.45-1.59,1.92-2.59.47-1,.7-2.11.7-3.32s-.23-2.32-.68-3.32c-.46-1-1.1-1.86-1.92-2.59-.82-.72-1.8-1.29-2.92-1.7-1.12-.41-2.34-.61-3.64-.61s-2.55.21-3.67.62c-1.12.42-2.09.99-2.9,1.71-.81.72-1.45,1.58-1.9,2.56-.46.98-.68,2.04-.68,3.17,0,1.25.23,2.39.68,3.41.46,1.02,1.09,1.9,1.89,2.63ZM70.71,15.65c.19-.42.44-.78.74-1.1.31-.32.67-.57,1.1-.74.43-.18.88-.27,1.35-.27s.93.09,1.35.27c.43.18.79.43,1.1.74.31.32.55.69.74,1.12.19.43.28.88.28,1.35s-.09.96-.28,1.38c-.19.43-.44.8-.74,1.12-.31.32-.67.57-1.1.74-.43.18-.88.27-1.35.27s-.93-.09-1.35-.27c-.43-.18-.79-.43-1.1-.74-.31-.32-.56-.69-.74-1.12-.19-.43-.28-.9-.28-1.41,0-.48.09-.92.28-1.34Z"/>
      <path class="cls-1" d="M92.62,20.92c-.32.22-.72.33-1.22.33-1.35,0-2.78-.52-4.28-1.55l-1.96,3.81c2,1.17,4.04,1.76,6.1,1.76,1.07,0,2.05-.13,2.95-.4.89-.27,1.66-.64,2.29-1.13.63-.49,1.13-1.09,1.49-1.8.36-.71.54-1.52.54-2.41,0-1.19-.37-2.17-1.1-2.93-.73-.76-1.84-1.29-3.33-1.59-.54-.12-.97-.22-1.29-.3-.33-.08-.58-.17-.74-.27-.17-.1-.28-.2-.33-.31-.05-.11-.07-.25-.07-.43,0-.34.15-.6.46-.8.31-.2.71-.3,1.21-.3.95,0,1.92.26,2.92.77l1.81-3.51c-1.59-.65-3.22-.98-4.91-.98-1.03,0-1.97.13-2.81.39-.84.26-1.56.62-2.16,1.1-.6.48-1.05,1.06-1.37,1.74-.32.68-.48,1.45-.48,2.31,0,1.17.33,2.09,1,2.75.66.66,1.83,1.17,3.5,1.5.5.1.9.19,1.21.28.31.09.54.19.7.3.16.11.26.23.31.36.05.13.07.29.07.49,0,.34-.16.62-.48.83Z"/>
      <rect class="cls-1" x="101.79" y="9.43" width="5.39" height="15.26"/>
      <path class="cls-1" d="M102.32,5.71c.28.28.6.5.97.65.37.16.76.24,1.18.24s.81-.08,1.18-.24c.37-.16.69-.38.97-.65s.5-.6.65-.97c.16-.37.24-.76.24-1.18s-.08-.81-.24-1.18c-.16-.37-.38-.69-.65-.97-.28-.28-.6-.5-.97-.65-.37-.16-.76-.24-1.18-.24s-.81.08-1.18.24c-.37.16-.69.38-.97.65s-.5.6-.65.97c-.16.37-.24.76-.24,1.18s.08.81.24,1.18c.16.37.38.69.65.97Z"/>
      <polygon class="cls-1" points="112.02 24.7 117.41 24.7 117.41 13.92 120.47 13.92 120.47 9.43 117.41 9.43 117.41 4.85 112.02 4.85 112.02 9.43 110.24 9.43 110.24 13.92 112.02 13.92 112.02 24.7"/>
      <polygon class="cls-1" points="123.95 32.31 129.99 32.31 142.25 9.43 136.06 9.43 132.1 17.26 128.03 9.43 121.78 9.43 129.16 22.61 123.95 32.31"/>
      <path class="cls-1" d="M162.39,20.38c-.83,0-1.68-.19-2.53-.57-.85-.38-1.72-.95-2.59-1.73l-2.5,4.7c2.42,1.69,5.05,2.53,7.88,2.53,1.37,0,2.59-.18,3.67-.55,1.08-.37,1.99-.88,2.74-1.55.74-.66,1.31-1.46,1.7-2.4.39-.93.58-1.97.58-3.12,0-1.71-.44-3.09-1.32-4.15-.88-1.06-2.28-1.91-4.18-2.54-.48-.16-.96-.31-1.44-.45-.49-.14-.92-.3-1.31-.49-.39-.19-.7-.41-.94-.67-.24-.26-.36-.58-.36-.98,0-.58.24-1.04.71-1.4.48-.36,1.09-.54,1.84-.54.6,0,1.21.12,1.84.37.63.25,1.27.63,1.9,1.15l2.32-4.55c-1.11-.6-2.27-1.05-3.48-1.35-1.21-.31-2.37-.46-3.48-.46-1.19,0-2.27.18-3.23.54-.96.36-1.78.86-2.44,1.5-.66.64-1.18,1.42-1.55,2.32-.37.9-.55,1.91-.55,3.02s.17,2.03.52,2.75c.35.72.8,1.32,1.37,1.8s1.21.86,1.93,1.15c.72.29,1.46.55,2.22.79.63.22,1.18.42,1.62.6.45.18.81.37,1.09.58.28.21.48.44.59.68.12.25.18.54.18.88,0,.56-.23,1.05-.7,1.49-.47.44-1.18.65-2.13.65Z"/>
      <path class="cls-1" d="M176.64,22.85c.69.73,1.51,1.3,2.44,1.71.93.41,1.95.61,3.06.61,1.96,0,3.52-.72,4.67-2.17v1.7h5.42v-15.26h-5.42v1.52c-1.25-1.33-2.83-1.99-4.73-1.99-1.13,0-2.16.21-3.09.64-.93.43-1.74,1.01-2.41,1.74-.67.73-1.2,1.59-1.58,2.57-.38.98-.57,2.02-.57,3.11,0,1.17.19,2.25.58,3.24.39.99.93,1.86,1.62,2.59ZM180.3,15.7c.18-.41.42-.77.73-1.09.31-.32.67-.57,1.1-.74.43-.18.89-.27,1.38-.27s.93.09,1.35.27c.43.18.79.43,1.1.74.31.32.56.69.74,1.12.19.43.28.88.28,1.35s-.09.92-.28,1.34c-.19.42-.44.78-.74,1.1-.31.32-.67.57-1.1.74-.43.18-.88.27-1.35.27s-.96-.09-1.38-.27c-.43-.18-.79-.43-1.1-.74-.31-.32-.55-.69-.73-1.12-.18-.43-.27-.89-.27-1.38s.09-.92.27-1.32Z"/>
      <polygon class="cls-1" points="206.34 24.7 214.28 9.43 208.27 9.43 204.58 17.26 200.95 9.43 194.88 9.43 202.74 24.7 206.34 24.7"/>
      <path class="cls-1" d="M226.72,20.02c-.6.95-1.48,1.43-2.65,1.43-2.18,0-3.27-1.16-3.27-3.48h11.34v-.57c0-1.33-.19-2.52-.57-3.59-.38-1.06-.92-1.96-1.64-2.69-.71-.73-1.59-1.29-2.62-1.68-1.03-.39-2.19-.58-3.48-.58s-2.48.19-3.53.58c-1.04.39-1.93.94-2.66,1.65-.73.71-1.3,1.58-1.7,2.6-.4,1.02-.6,2.17-.6,3.44s.21,2.34.62,3.33c.42.99,1.01,1.84,1.77,2.56.76.71,1.68,1.26,2.75,1.65,1.07.39,2.25.58,3.54.58,4.2,0,6.83-1.75,7.88-5.24h-5.21ZM221.94,13c.53-.44,1.21-.65,2.04-.65s1.47.23,2.02.68c.56.46.92,1.06,1.1,1.81h-6.16c.14-.79.47-1.41,1-1.84Z"/>
      <path class="cls-1" d="M243.71,15c-.54-.12-.97-.22-1.29-.3-.33-.08-.58-.17-.74-.27-.17-.1-.28-.2-.33-.31-.05-.11-.07-.25-.07-.43,0-.34.15-.6.46-.8.31-.2.71-.3,1.21-.3.95,0,1.92.26,2.92.77l1.81-3.51c-1.59-.65-3.22-.98-4.91-.98-1.03,0-1.97.13-2.81.39-.84.26-1.56.62-2.16,1.1s-1.05,1.06-1.37,1.74c-.32.68-.48,1.45-.48,2.31,0,1.17.33,2.09,1,2.75.66.66,1.83,1.17,3.5,1.5.5.1.9.19,1.21.28.31.09.54.19.7.3.16.11.26.23.31.36.05.13.07.29.07.49,0,.34-.16.62-.48.83-.32.22-.72.33-1.22.33-1.35,0-2.78-.52-4.28-1.55l-1.96,3.81c2,1.17,4.04,1.76,6.1,1.76,1.07,0,2.05-.13,2.95-.4.89-.27,1.66-.64,2.29-1.13.63-.49,1.13-1.09,1.49-1.8.36-.71.54-1.52.54-2.41,0-1.19-.37-2.17-1.1-2.93-.73-.76-1.84-1.29-3.33-1.59Z"/>
      <polygon class="cls-1" points="268.08 4.85 262.69 4.85 262.69 9.43 260.91 9.43 260.91 13.92 262.69 13.92 262.69 24.7 268.08 24.7 268.08 13.92 271.14 13.92 271.14 9.43 268.08 9.43 268.08 4.85"/>
      <path class="cls-1" d="M284.65,9.1c-1.01,0-1.89.15-2.65.46-.75.31-1.5.91-2.23,1.8V0h-5.39v24.7h5.39v-8.15c0-1.01.24-1.79.73-2.34.49-.55,1.19-.82,2.1-.82.67,0,1.25.21,1.73.62.28.26.48.62.6,1.1.12.48.18,1.1.18,1.87v7.71h5.39v-9.7c0-1.8-.49-3.24-1.47-4.3-.98-1.06-2.44-1.59-4.36-1.59Z"/>
      <path class="cls-1" d="M308.66,11.13c-.71-.73-1.59-1.29-2.62-1.68-1.03-.39-2.19-.58-3.48-.58s-2.48.19-3.53.58c-1.04.39-1.93.94-2.66,1.65-.73.71-1.3,1.58-1.7,2.6-.4,1.02-.6,2.17-.6,3.44s.21,2.34.62,3.33c.42.99,1.01,1.84,1.77,2.56.76.71,1.68,1.26,2.75,1.65s2.25.58,3.54.58c4.2,0,6.83-1.75,7.88-5.24h-5.21c-.6.95-1.48,1.43-2.65,1.43-2.18,0-3.27-1.16-3.27-3.48h11.34v-.57c0-1.33-.19-2.52-.57-3.59-.38-1.06-.92-1.96-1.64-2.69ZM299.67,14.85c.14-.79.47-1.41,1-1.84.53-.44,1.21-.65,2.04-.65s1.47.23,2.02.68c.56.46.92,1.06,1.1,1.81h-6.16Z"/>
      <path class="cls-1" d="M336.42,1.64c-1.57,0-3.06.29-4.49.88-1.43.59-2.68,1.4-3.76,2.44-1.08,1.04-1.94,2.28-2.59,3.72-.64,1.44-.97,3.02-.97,4.75s.33,3.32.98,4.78c.65,1.46,1.52,2.72,2.6,3.78,1.08,1.06,2.33,1.88,3.75,2.47,1.42.58,2.9.88,4.45.88.75,0,1.52-.07,2.29-.22.77-.15,1.61-.38,2.5-.7l.6-.21v-6.9c-1.49,1.59-3.16,2.38-5.03,2.38-.85,0-1.65-.16-2.38-.48-.73-.32-1.37-.75-1.92-1.31-.55-.55-.97-1.21-1.28-1.96-.31-.75-.46-1.58-.46-2.47s.15-1.69.46-2.44c.31-.75.73-1.4,1.26-1.95.54-.55,1.18-.98,1.92-1.29s1.55-.48,2.42-.48c1.98,0,3.65.82,5,2.47V2.8c-.95-.4-1.86-.69-2.72-.88-.86-.19-1.74-.28-2.63-.28Z"/>
      <path class="cls-1" d="M356.68,10.95c-1.25-1.33-2.83-1.99-4.73-1.99-1.13,0-2.16.21-3.09.64-.93.43-1.74,1.01-2.41,1.74-.67.73-1.2,1.59-1.58,2.57-.38.98-.57,2.02-.57,3.11,0,1.17.19,2.25.58,3.24.39.99.93,1.86,1.62,2.59.69.73,1.51,1.3,2.44,1.71.93.41,1.95.61,3.06.61,1.96,0,3.52-.72,4.67-2.17v1.7h5.42v-15.26h-5.42v1.52ZM356.58,18.42c-.19.42-.44.78-.74,1.1-.31.32-.67.57-1.1.74-.43.18-.88.27-1.35.27s-.96-.09-1.38-.27c-.43-.18-.79-.43-1.1-.74-.31-.32-.55-.69-.73-1.12-.18-.43-.27-.89-.27-1.38s.09-.92.27-1.32c.18-.41.42-.77.73-1.09.31-.32.67-.57,1.1-.74.43-.18.89-.27,1.38-.27s.93.09,1.35.27c.43.18.79.43,1.1.74.31.32.56.69.74,1.12.19.43.28.88.28,1.35s-.09.92-.28,1.34Z"/>
      <polygon class="cls-1" points="372.3 4.85 366.92 4.85 366.92 9.43 365.13 9.43 365.13 13.92 366.92 13.92 366.92 24.7 372.3 24.7 372.3 13.92 375.37 13.92 375.37 9.43 372.3 9.43 372.3 4.85"/>
      <path class="cls-1" d="M384.35,20.49c-.18-.43-.43-.8-.74-1.12-.32-.32-.69-.57-1.12-.74-.43-.18-.88-.27-1.35-.27s-.93.09-1.35.27c-.43.18-.8.43-1.12.74s-.57.69-.74,1.12c-.18.43-.27.88-.27,1.35s.09.93.27,1.35c.18.43.43.8.74,1.12.32.32.69.57,1.12.74.43.18.88.27,1.35.27s.93-.09,1.35-.27c.43-.18.8-.43,1.12-.74s.57-.69.74-1.12c.18-.43.27-.88.27-1.35s-.09-.93-.27-1.35Z"/>
    </g>
  </g>
</svg>