<?xml version="1.0" encoding="UTF-8"?><svg id="_レイヤー_2" xmlns="http://www.w3.org/2000/svg" xmlns:xlink="http://www.w3.org/1999/xlink" viewBox="0 0 388.98 424.84"><defs><style>.cls-1{fill:url(#_名称未設定グラデーション_3);}.cls-2{fill:url(#_名称未設定グラデーション_3-3);}.cls-3{fill:url(#_名称未設定グラデーション_3-2);}.cls-4{fill:url(#_名称未設定グラデーション_3-4);}.cls-5{fill:red;}</style><linearGradient id="_名称未設定グラデーション_3" x1="0" y1="212.42" x2="388.98" y2="212.42" gradientUnits="userSpaceOnUse"><stop offset="0" stop-color="#231815"/><stop offset="1" stop-color="#231815"/></linearGradient><linearGradient id="_名称未設定グラデーション_3-2" x1="192.73" y1="228.38" x2="199.74" y2="228.38" xlink:href="#_名称未設定グラデーション_3"/><linearGradient id="_名称未設定グラデーション_3-3" x1="45.77" y1="230.36" x2="152.26" y2="230.36" xlink:href="#_名称未設定グラデーション_3"/><linearGradient id="_名称未設定グラデーション_3-4" x1="240.21" y1="230.36" x2="346.7" y2="230.36" xlink:href="#_名称未設定グラデーション_3"/></defs><g id="_レイヤー_1-2"><path class="cls-1" d="M378.26,166.55c-19.87-57.25-65.95-102.29-123.62-121.04-4.9-8.74-11.53-16.16-19.52-21.86.51-.37,1.02-.67,1.53-.91,1.05-.49,2.03-.73,2.98-.73,1.08,0,2.18.31,3.37.93,1.57.83,3.34,1.27,5.12,1.27,4.09,0,7.82-2.25,9.73-5.86,2.83-5.38.76-12.04-4.6-14.87C248.88,1.17,244.29,0,239.63,0c-4.2,0-8.35.95-12.34,2.83-4.9,2.31-9.38,6.08-12.98,10.88-5.91-1.67-11.96-2.52-18.05-2.52s-12.14.84-18.05,2.52c-3.6-4.8-8.08-8.58-12.98-10.88C161.23.95,157.07,0,152.87,0,148.21,0,143.63,1.17,139.25,3.47c-2.6,1.37-4.51,3.67-5.38,6.48-.87,2.81-.59,5.78.78,8.38,1.91,3.62,5.64,5.87,9.73,5.87,1.78,0,3.56-.44,5.13-1.28,1.18-.62,2.28-.92,3.36-.92.96,0,1.93.24,2.99.73.51.24,1.02.55,1.53.92-7.54,5.39-13.89,12.34-18.72,20.49C78.89,62.03,31.18,107.59,10.72,166.55,3.61,187.04,0,208.51,0,230.35c0,106.26,86.44,193.5,192.68,194.47h.67s1.14.02,1.14.02c1.83,0,3.66-.03,5.48-.08,105.99-2.93,189.01-88.33,189.01-194.41,0-21.84-3.61-43.3-10.72-63.79ZM199.76,417.27c-1.75.05-3.51.08-5.27.08-.58,0-1.16-.02-1.74-.02-102.47-.94-185.26-84.28-185.26-186.98,0-21.49,3.63-42.12,10.3-61.34,19.82-57.1,66.58-101.48,125.03-118.26-4.31,8.35-6.66,17.74-6.66,27.51,0,33.12,26.95,60.07,60.07,60.07s60.07-26.95,60.07-60.07c0-9.29-2.13-18.24-6.04-26.27,56.52,17.65,101.57,61.27,120.93,117.02,6.67,19.22,10.31,39.85,10.31,61.34,0,101.51-80.89,184.13-181.73,186.92Z"/><path class="cls-5" d="M17.77,169.01c-6.67,19.22-10.3,39.85-10.3,61.34,0,102.69,82.78,186.04,185.26,186.98V43.38c-81.03.74-149.74,53-174.95,125.63Z"/><path class="cls-5" d="M381.47,230.35c0-21.49-3.64-42.12-10.3-61.34-24.84-71.57-91.93-123.35-171.42-125.56v373.82c100.84-2.79,181.73-85.41,181.73-186.92Z"/><path class="cls-5" d="M194.47,43.35c-.58,0-1.16.03-1.74.03v373.94c.58,0,1.16.02,1.74.02,1.76,0,3.52-.03,5.27-.08V43.45c-1.75-.05-3.51-.11-5.27-.11Z"/><path class="cls-3" d="M194.47,34.52c-.58,0-1.16.03-1.74.04v387.66c.58,0,1.16.02,1.74.02,1.76,0,3.52-.03,5.27-.08V34.63c-1.75-.05-3.51-.11-5.27-.11Z"/><circle class="cls-2" cx="99.01" cy="230.36" r="53.25"/><circle class="cls-4" cx="293.46" cy="230.36" r="53.25"/></g></svg>