<?xml version="1.0" encoding="UTF-8"?><svg id="_レイヤー_2" xmlns="http://www.w3.org/2000/svg" xmlns:xlink="http://www.w3.org/1999/xlink" viewBox="0 0 482.31 424.84"><defs><style>.cls-1{fill:url(#_名称未設定グラデーション_3);}.cls-2{fill:url(#_名称未設定グラデーション_3-3);}.cls-3{fill:url(#_名称未設定グラデーション_3-2);}.cls-4{fill:red;}</style><linearGradient id="_名称未設定グラデーション_3" x1="0" y1="212.42" x2="482.31" y2="212.42" gradientUnits="userSpaceOnUse"><stop offset="0" stop-color="#231815"/><stop offset="1" stop-color="#231815"/></linearGradient><linearGradient id="_名称未設定グラデーション_3-2" x1="57.85" y1="211.04" x2="164.34" y2="211.04" xlink:href="#_名称未設定グラデーション_3"/><linearGradient id="_名称未設定グラデーション_3-3" x1="321.26" y1="211.04" x2="427.75" y2="211.04" xlink:href="#_名称未設定グラデーション_3"/></defs><g id="_レイヤー_1-2"><path class="cls-1" d="M475.7,186.25c-5.65-21.09-14.69-40.89-26.86-58.85-33.85-49.92-89.6-81.42-149.81-84.88-4.49-7.79-10.37-14.51-17.35-19.85,1-.45,1.94-.67,2.85-.67,1.08,0,2.18.31,3.38.93,1.57.83,3.34,1.27,5.12,1.27,4.1,0,7.83-2.25,9.74-5.87,2.83-5.37.76-12.03-4.61-14.86C293.78,1.17,289.2,0,284.53,0c-4.2,0-8.35.95-12.35,2.83-4.25,2-8.16,5.1-11.52,9.1-6.33-1.94-12.87-2.92-19.51-2.92s-13.18.98-19.51,2.92c-3.36-4-7.27-7.1-11.52-9.1C206.13.95,201.97,0,197.77,0c-4.66,0-9.24,1.17-13.62,3.47-5.36,2.83-7.43,9.49-4.61,14.86,1.92,3.63,5.65,5.88,9.73,5.88,1.78,0,3.56-.44,5.13-1.28,1.18-.62,2.28-.92,3.36-.92.92,0,1.85.22,2.85.67-6.98,5.34-12.86,12.06-17.35,19.85-60.21,3.46-115.96,34.96-149.81,84.88-12.17,17.95-21.21,37.75-26.86,58.85-27.5,102.63,33.4,209.26,135.76,237.71.66.18,1.33.27,2.01.27,1.29,0,2.57-.33,3.72-.99,1.74-.99,3-2.64,3.52-4.57l3.71-13.85c26.63,13.11,56.11,20.01,85.84,20.01s59.21-6.89,85.84-20.01l3.71,13.85c.52,1.93,1.79,3.57,3.52,4.57,1.14.65,2.42.99,3.72.99.67,0,1.35-.09,2.01-.27,102.36-28.44,163.26-135.08,135.76-237.71ZM186.24,50.62c-57.27,17.48-103.12,61.59-122.73,118.06-6.88,19.81-10.36,40.55-10.36,61.67,0,70.71,39.24,132.41,97.08,164.5l-5.86,21.89C45.64,389.3-12.74,287.38,13.84,188.19c5.56-20.75,14.41-39.74,25.83-56.58,33.09-48.8,87.83-79.27,146.94-81.73-.12.25-.25.5-.37.75ZM337.94,416.74l-5.86-21.89c57.84-32.1,97.08-93.8,97.08-164.5,0-21.11-3.49-41.86-10.36-61.67-19.6-56.47-65.46-100.58-122.73-118.06-.12-.25-.25-.5-.37-.75,59.11,2.47,113.84,32.93,146.94,81.74,11.42,16.83,20.27,35.83,25.83,56.58,26.58,99.19-31.8,201.11-130.53,228.55Z"/><path class="cls-4" d="M468.47,188.19c-5.56-20.75-14.41-39.75-25.83-56.58-43.14-63.62-123.03-96.32-201.49-76.07l96.78,361.2c98.73-27.44,157.11-129.36,130.53-228.55Z"/><path class="cls-4" d="M13.84,188.19c5.56-20.75,14.41-39.75,25.83-56.58,43.14-63.62,123.03-96.32,201.49-76.07l-96.78,361.2C45.64,389.3-12.74,287.38,13.84,188.19Z"/><circle class="cls-3" cx="111.09" cy="211.04" r="53.25"/><circle class="cls-2" cx="374.5" cy="211.04" r="53.25"/></g></svg>