<?xml version="1.0" encoding="UTF-8"?>
<svg id="_レイヤー_2" data-name="レイヤー 2" xmlns="http://www.w3.org/2000/svg" viewBox="0 0 161.81 20.43">
  <defs>
    <style>
      .cls-1 {
        fill: none;
      }

      .cls-2 {
        fill: #333;
      }
    </style>
  </defs>
  <g id="layout">
    <g>
      <g>
        <path class="cls-2" d="M0,15.76V1.58h3.69l6.81,8.67V1.58h3.67v14.18h-3.67L3.69,7.09v8.67H0Z"/>
        <path class="cls-2" d="M20.48,11.51c0,1.47.69,2.2,2.07,2.2.74,0,1.3-.3,1.67-.9h3.29c-.66,2.21-2.33,3.31-4.98,3.31-.82,0-1.56-.12-2.24-.37-.68-.24-1.26-.59-1.74-1.04-.48-.45-.86-.99-1.12-1.62-.26-.63-.4-1.33-.4-2.11s.13-1.53.38-2.17c.25-.65.61-1.19,1.07-1.65.46-.45,1.02-.8,1.68-1.04s1.4-.37,2.23-.37,1.55.12,2.2.37c.65.24,1.2.6,1.66,1.06s.8,1.03,1.03,1.7c.24.67.36,1.43.36,2.27v.36h-7.17ZM24.47,9.54c-.11-.48-.35-.86-.7-1.15-.35-.29-.78-.43-1.28-.43-.53,0-.96.14-1.29.41-.33.28-.54.66-.63,1.17h3.89Z"/>
        <path class="cls-2" d="M33.37.15v9.44l3.57-3.48h4.66l-4.83,4.46,5.12,5.19h-4.78l-3.74-3.93v3.93h-3.4V.15h3.4Z"/>
        <path class="cls-2" d="M42.45,10.85c0-.71.14-1.38.43-2s.69-1.16,1.2-1.62c.51-.46,1.13-.82,1.83-1.08.71-.26,1.48-.39,2.32-.39s1.6.13,2.3.39c.71.26,1.32.61,1.84,1.07.52.46.92,1,1.21,1.64.29.63.43,1.33.43,2.1s-.15,1.46-.44,2.1c-.29.63-.7,1.18-1.21,1.64-.51.46-1.13.81-1.85,1.06-.72.25-1.5.38-2.34.38s-1.59-.13-2.29-.38c-.7-.25-1.31-.61-1.81-1.07-.51-.46-.91-1.02-1.19-1.66-.29-.65-.43-1.36-.43-2.15ZM46.04,10.89c0,.33.06.62.18.89.12.27.28.51.47.71.19.2.43.36.7.47.27.11.56.17.86.17s.59-.06.86-.17c.27-.11.5-.27.7-.47.19-.2.35-.44.47-.71.12-.27.18-.56.18-.87s-.06-.59-.18-.86c-.12-.27-.28-.5-.47-.71-.19-.2-.43-.36-.7-.47-.27-.11-.55-.17-.86-.17s-.59.06-.86.17c-.27.11-.5.27-.7.47-.19.2-.35.43-.47.7-.12.26-.18.55-.18.85Z"/>
      </g>
      <g>
        <path class="cls-2" d="M63.81,1.43v11.06h4.42v3.12h-8.11V1.43h3.69Z"/>
        <path class="cls-2" d="M77.63,5.96h3.42v9.65h-3.42v-1.07c-.73.92-1.71,1.37-2.95,1.37-.7,0-1.35-.13-1.94-.39-.59-.26-1.1-.62-1.54-1.08-.44-.46-.78-1.01-1.03-1.64-.24-.63-.37-1.31-.37-2.05,0-.69.12-1.34.36-1.97.24-.62.57-1.16,1-1.63.43-.46.93-.83,1.52-1.1s1.24-.4,1.96-.4c1.2,0,2.2.42,2.99,1.26v-.96ZM73.34,10.76c0,.31.06.61.17.87.11.27.27.51.46.71.19.2.43.36.7.47.27.11.56.17.87.17s.59-.06.86-.17c.27-.11.5-.27.7-.47.19-.2.35-.43.47-.7.12-.26.18-.55.18-.85s-.06-.59-.18-.86c-.12-.27-.28-.5-.47-.71-.19-.2-.43-.36-.7-.47-.27-.11-.55-.17-.86-.17s-.61.06-.87.17c-.27.11-.5.27-.7.47-.19.2-.35.43-.46.69-.11.26-.17.54-.17.84Z"/>
        <path class="cls-2" d="M87.15,0v6.92c.8-.84,1.81-1.26,3.01-1.26.71,0,1.37.13,1.97.4.6.27,1.1.63,1.52,1.09.42.46.75,1,.99,1.62.24.62.36,1.28.36,1.98s-.12,1.39-.37,2.01c-.24.63-.59,1.17-1.03,1.64-.44.46-.96.83-1.55,1.1-.6.27-1.24.4-1.93.4-1.25,0-2.24-.46-2.97-1.37v1.07h-3.4V0h3.4ZM91.44,10.81c0-.3-.06-.59-.17-.86-.11-.27-.27-.5-.47-.71-.2-.2-.43-.36-.7-.48s-.55-.18-.87-.18-.58.06-.85.17c-.26.11-.49.27-.69.47-.19.2-.35.44-.47.71-.12.27-.18.56-.18.86s.06.58.17.85c.11.26.27.49.47.69.2.19.44.35.71.47.27.12.56.18.86.18s.58-.06.85-.17c.26-.11.49-.27.69-.47.19-.2.35-.43.47-.7.12-.26.18-.54.18-.83Z"/>
      </g>
      <g>
        <path class="cls-2" d="M106.71,4.55v11.06h-3.69V4.55h-3.03V1.43h9.74v3.12h-3.03Z"/>
        <path class="cls-2" d="M110.36,10.7c0-.71.14-1.38.43-2,.29-.62.69-1.16,1.2-1.62.51-.46,1.13-.82,1.83-1.08.71-.26,1.48-.39,2.32-.39s1.6.13,2.3.39c.71.26,1.32.61,1.84,1.07.52.46.92,1,1.21,1.64.29.63.43,1.33.43,2.1s-.15,1.46-.44,2.1c-.29.63-.7,1.18-1.21,1.64-.51.46-1.13.81-1.85,1.06-.72.25-1.5.38-2.34.38s-1.59-.13-2.29-.38c-.7-.25-1.31-.61-1.81-1.07-.51-.46-.91-1.02-1.19-1.66-.29-.65-.43-1.36-.43-2.15ZM113.96,10.74c0,.33.06.62.18.89.12.27.28.51.47.71.19.2.43.36.7.47.27.11.56.17.86.17s.59-.06.86-.17c.27-.11.5-.27.7-.47.19-.2.35-.44.47-.71.12-.27.18-.56.18-.87s-.06-.59-.18-.86c-.12-.27-.28-.5-.47-.71-.19-.2-.43-.36-.7-.47-.27-.11-.55-.17-.86-.17s-.59.06-.86.17c-.27.11-.5.27-.7.47-.19.2-.35.43-.47.7-.12.26-.18.55-.18.85Z"/>
        <path class="cls-2" d="M127.69,0v9.44l3.57-3.48h4.66l-4.83,4.46,5.12,5.19h-4.78l-3.74-3.93v3.93h-3.4V0h3.4Z"/>
        <path class="cls-2" d="M141.29,14.29l-4.66-8.33h3.95l2.58,4.95,2.5-4.95h3.91l-7.75,14.46h-3.82l3.29-6.13Z"/>
        <path class="cls-2" d="M150.22,10.7c0-.71.14-1.38.43-2,.29-.62.69-1.16,1.2-1.62.51-.46,1.13-.82,1.83-1.08.71-.26,1.48-.39,2.32-.39s1.6.13,2.3.39c.71.26,1.32.61,1.84,1.07.52.46.92,1,1.21,1.64.29.63.43,1.33.43,2.1s-.15,1.46-.44,2.1c-.29.63-.7,1.18-1.21,1.64-.51.46-1.13.81-1.85,1.06-.72.25-1.5.38-2.34.38s-1.59-.13-2.29-.38c-.7-.25-1.31-.61-1.81-1.07-.51-.46-.91-1.02-1.19-1.66-.29-.65-.43-1.36-.43-2.15ZM153.81,10.74c0,.33.06.62.18.89.12.27.28.51.47.71.19.2.43.36.7.47.27.11.56.17.86.17s.59-.06.86-.17c.27-.11.5-.27.7-.47.19-.2.35-.44.47-.71.12-.27.18-.56.18-.87s-.06-.59-.18-.86c-.12-.27-.28-.5-.47-.71-.19-.2-.43-.36-.7-.47-.27-.11-.55-.17-.86-.17s-.59.06-.86.17c-.27.11-.5.27-.7.47-.19.2-.35.43-.47.7-.12.26-.18.55-.18.85Z"/>
      </g>
    </g>
    <rect class="cls-1" width="161.81" height="20.43"/>
  </g>
</svg>