<?xml version="1.0" encoding="UTF-8"?>
<svg id="_レイヤー_2" data-name="レイヤー 2" xmlns="http://www.w3.org/2000/svg" viewBox="0 0 46.32 14.12">
  <defs>
    <style>
      .cls-1 {
        fill: none;
      }

      .cls-2 {
        fill: #333;
      }
    </style>
  </defs>
  <g id="layout">
    <rect class="cls-1" width="46.32" height="14.12"/>
    <g>
      <path class="cls-2" d="M6.94,9.33h-3.64l-.59,1.7H0L3.73,1.24h2.78l3.73,9.8h-2.72l-.58-1.7ZM6.27,7.4l-1.14-3.26-1.14,3.26h2.29Z"/>
      <path class="cls-2" d="M14.68.25v4.78c.55-.58,1.25-.87,2.08-.87.49,0,.95.09,1.36.28s.76.44,1.05.75c.29.32.52.69.68,1.12.16.43.25.89.25,1.37s-.08.96-.25,1.39c-.17.43-.4.81-.71,1.13-.3.32-.66.57-1.07.76-.41.19-.86.28-1.33.28-.87,0-1.55-.32-2.05-.95v.74h-2.35V.25h2.35ZM17.64,7.72c0-.21-.04-.4-.12-.59s-.19-.35-.32-.49-.3-.25-.48-.33c-.18-.08-.38-.12-.6-.12s-.4.04-.58.12c-.18.08-.34.19-.47.33s-.24.3-.32.49c-.08.19-.12.38-.12.59s.04.4.12.58c.08.18.19.34.33.47.14.13.3.24.49.33.19.08.38.12.59.12s.4-.04.59-.12c.18-.08.34-.19.47-.33.13-.14.24-.3.32-.48.08-.18.12-.37.12-.57Z"/>
      <path class="cls-2" d="M22.22,7.64c0-.49.1-.96.3-1.38s.48-.8.83-1.12.78-.57,1.27-.75c.49-.18,1.03-.27,1.61-.27s1.1.09,1.59.27c.49.18.91.42,1.27.74s.64.69.84,1.13.3.92.3,1.45-.1,1.01-.3,1.45c-.2.44-.48.82-.84,1.13s-.78.56-1.28.73c-.5.17-1.04.26-1.62.26s-1.1-.09-1.59-.26c-.48-.17-.9-.42-1.25-.74s-.63-.7-.83-1.15-.3-.94-.3-1.49ZM24.7,7.67c0,.23.04.43.12.62.08.19.19.35.32.49s.29.25.48.33c.19.08.38.12.59.12s.41-.04.59-.12c.19-.08.35-.19.48-.33.13-.14.24-.3.33-.49.08-.19.12-.39.12-.6s-.04-.41-.12-.59-.19-.35-.33-.49c-.13-.14-.29-.25-.48-.33-.19-.08-.38-.12-.59-.12s-.4.04-.59.12c-.19.08-.35.19-.48.33s-.24.3-.32.48c-.08.18-.12.38-.12.58Z"/>
      <path class="cls-2" d="M34.97,4.37v3.76c0,.82.4,1.24,1.2,1.24s1.2-.41,1.2-1.24v-3.76h2.35v4.21c0,.9-.3,1.58-.89,2.03-.59.45-1.48.68-2.66.68s-2.06-.23-2.66-.68c-.59-.45-.89-1.13-.89-2.03v-4.21h2.35Z"/>
      <path class="cls-2" d="M44.98,6.33v4.71h-2.35v-4.71h-.78v-1.96h.78v-2h2.35v2h1.34v1.96h-1.34Z"/>
    </g>
  </g>
</svg>