<?xml version="1.0" encoding="UTF-8"?>
<svg id="_レイヤー_2" data-name="レイヤー 2" xmlns="http://www.w3.org/2000/svg" viewBox="0 0 57.17 14.37">
  <defs>
    <style>
      .cls-1 {
        fill: none;
      }

      .cls-2 {
        fill: #333;
      }
    </style>
  </defs>
  <g id="layout">
    <rect class="cls-1" width="57.17" height="14.12"/>
    <g>
      <path class="cls-2" d="M5.21,5.55h5.06c0,.52-.02.99-.06,1.42-.04.42-.13.82-.26,1.18-.18.51-.43.96-.74,1.36s-.68.72-1.1.99c-.42.26-.88.47-1.38.6-.5.14-1.03.21-1.59.21-.76,0-1.46-.13-2.09-.38-.63-.25-1.17-.61-1.62-1.06-.45-.46-.8-1-1.05-1.64-.25-.64-.38-1.34-.38-2.11s.12-1.46.37-2.1c.25-.64.6-1.18,1.05-1.63.46-.45,1-.8,1.64-1.05.64-.25,1.36-.38,2.14-.38,1.02,0,1.92.22,2.69.66.77.44,1.38,1.13,1.83,2.05l-2.42,1c-.22-.54-.52-.92-.88-1.16-.36-.23-.77-.35-1.23-.35-.38,0-.73.07-1.04.21-.31.14-.58.35-.8.61-.22.26-.39.58-.52.96-.13.37-.19.79-.19,1.25,0,.42.05.8.16,1.16.11.36.27.66.49.92s.49.46.81.6c.32.14.69.21,1.12.21.25,0,.49-.03.73-.08s.44-.15.63-.27c.19-.12.34-.29.46-.49s.2-.44.25-.73h-2.09v-1.98Z"/>
      <path class="cls-2" d="M17.85,4.37h2.37v6.67h-2.37v-.74c-.5.63-1.18.95-2.04.95-.48,0-.93-.09-1.34-.27-.41-.18-.76-.43-1.07-.75-.3-.32-.54-.7-.71-1.13-.17-.43-.25-.91-.25-1.42,0-.48.08-.93.25-1.36.16-.43.39-.8.69-1.12.29-.32.64-.57,1.05-.76.41-.19.86-.28,1.35-.28.83,0,1.52.29,2.07.87v-.66ZM14.88,7.68c0,.22.04.42.12.6.08.19.18.35.32.49.13.14.29.25.48.33.19.08.39.12.6.12s.41-.04.59-.12c.19-.08.35-.19.48-.33.13-.14.24-.3.32-.48.08-.18.12-.38.12-.58s-.04-.41-.12-.59c-.08-.19-.19-.35-.32-.49-.13-.14-.29-.25-.48-.33-.19-.08-.38-.12-.59-.12s-.42.04-.6.12c-.19.08-.35.19-.48.33-.13.14-.24.3-.32.47-.08.18-.12.37-.12.58Z"/>
      <path class="cls-2" d="M25.21.25v10.79h-2.35V.25h2.35Z"/>
      <path class="cls-2" d="M30.21.25v10.79h-2.35V.25h2.35Z"/>
      <path class="cls-2" d="M34.72,8.1c0,1.01.48,1.52,1.43,1.52.51,0,.9-.21,1.16-.62h2.28c-.46,1.53-1.61,2.29-3.45,2.29-.56,0-1.08-.08-1.55-.25-.47-.17-.87-.41-1.2-.72-.33-.31-.59-.68-.77-1.12-.18-.43-.27-.92-.27-1.46s.09-1.06.26-1.5.42-.83.74-1.14c.32-.31.71-.55,1.16-.72s.97-.25,1.54-.25,1.07.08,1.52.25c.45.17.83.41,1.14.73s.55.71.71,1.18c.17.46.25.99.25,1.57v.25h-4.95ZM37.48,6.73c-.08-.33-.24-.59-.48-.79-.24-.2-.54-.3-.88-.3-.36,0-.66.09-.89.29-.23.19-.38.46-.44.81h2.69Z"/>
      <path class="cls-2" d="M41.79,4.37h2.35v1.09c.25-.4.56-.7.92-.92.36-.21.79-.32,1.27-.32h.2c.07,0,.16,0,.25.03v2.25c-.31-.16-.65-.23-1.01-.23-.55,0-.96.16-1.23.49-.27.32-.41.8-.41,1.42v2.86h-2.35v-6.67Z"/>
      <path class="cls-2" d="M51.45,10.13l-3.22-5.76h2.73l1.78,3.42,1.73-3.42h2.71l-5.36,10h-2.64l2.28-4.24Z"/>
    </g>
  </g>
</svg>