<?xml version="1.0" encoding="UTF-8"?>
<svg id="_レイヤー_2" data-name="レイヤー 2" xmlns="http://www.w3.org/2000/svg" viewBox="0 0 62.36 14.12">
  <defs>
    <style>
      .cls-1 {
        fill: none;
      }

      .cls-2 {
        fill: #333;
      }
    </style>
  </defs>
  <g id="layout">
    <rect class="cls-1" width="62.36" height="14.12"/>
    <g>
      <path class="cls-2" d="M0,11.04L1.66,1.24h2.52l1.96,5.23,1.95-5.23h2.52l1.66,9.8h-2.54l-.84-5.64-2.31,5.64h-1.01l-2.2-5.64-.84,5.64H0Z"/>
      <path class="cls-2" d="M16.48,8.1c0,1.01.48,1.52,1.43,1.52.51,0,.9-.21,1.16-.62h2.28c-.46,1.53-1.61,2.29-3.45,2.29-.56,0-1.08-.08-1.55-.25s-.87-.41-1.2-.72c-.33-.31-.59-.68-.77-1.12-.18-.43-.27-.92-.27-1.46s.09-1.06.26-1.5c.17-.45.42-.83.74-1.14.32-.31.71-.55,1.16-.72.45-.17.97-.25,1.54-.25s1.07.08,1.52.25c.45.17.83.41,1.14.73.31.32.55.71.71,1.18.17.46.25.99.25,1.57v.25h-4.95ZM19.24,6.73c-.08-.33-.24-.59-.48-.79-.24-.2-.54-.3-.88-.3-.36,0-.66.09-.89.29-.23.19-.38.46-.44.81h2.69Z"/>
      <path class="cls-2" d="M23.82,4.37h2.35v.82c.64-.62,1.36-.92,2.16-.92.99,0,1.74.42,2.26,1.25.53-.84,1.28-1.26,2.26-1.26.31,0,.61.05.88.14s.52.23.72.43c.2.2.36.45.47.76.12.31.18.69.18,1.13v4.33h-2.35v-3.29c0-.34-.02-.62-.07-.83-.05-.22-.12-.39-.21-.51-.09-.12-.2-.2-.32-.25-.12-.04-.25-.07-.39-.07-.75,0-1.13.55-1.13,1.65v3.29h-2.35v-3.29c0-.34-.02-.62-.06-.84-.04-.22-.11-.4-.19-.53-.08-.13-.19-.22-.32-.27-.13-.05-.28-.07-.46-.07-.15,0-.29.02-.42.07-.13.04-.25.13-.34.25-.1.13-.18.3-.23.52-.06.22-.08.51-.08.86v3.29h-2.35v-6.67Z"/>
      <path class="cls-2" d="M40.11.25v4.78c.55-.58,1.25-.87,2.08-.87.49,0,.95.09,1.36.28.41.19.76.44,1.05.75s.52.69.68,1.12c.16.43.25.89.25,1.37s-.08.96-.25,1.39-.41.81-.71,1.13c-.3.32-.66.57-1.07.76-.41.19-.86.28-1.33.28-.87,0-1.55-.32-2.05-.95v.74h-2.35V.25h2.35ZM43.07,7.72c0-.21-.04-.4-.12-.59s-.19-.35-.33-.49-.3-.25-.48-.33c-.18-.08-.38-.12-.6-.12s-.4.04-.58.12c-.18.08-.34.19-.47.33-.13.14-.24.3-.33.49-.08.19-.12.38-.12.59s.04.4.12.58c.08.18.19.34.33.47.14.13.3.24.49.33s.38.12.59.12.4-.04.58-.12c.18-.08.34-.19.47-.33.13-.14.24-.3.32-.48.08-.18.12-.37.12-.57Z"/>
      <path class="cls-2" d="M50.02,8.1c0,1.01.48,1.52,1.43,1.52.51,0,.9-.21,1.16-.62h2.28c-.46,1.53-1.61,2.29-3.45,2.29-.56,0-1.08-.08-1.55-.25s-.87-.41-1.2-.72c-.33-.31-.59-.68-.77-1.12-.18-.43-.27-.92-.27-1.46s.09-1.06.26-1.5c.17-.45.42-.83.74-1.14.32-.31.71-.55,1.16-.72.45-.17.97-.25,1.54-.25s1.07.08,1.52.25c.45.17.83.41,1.14.73.31.32.55.71.71,1.18.17.46.25.99.25,1.57v.25h-4.95ZM52.78,6.73c-.08-.33-.24-.59-.48-.79-.24-.2-.54-.3-.88-.3-.36,0-.66.09-.89.29-.23.19-.38.46-.44.81h2.69Z"/>
      <path class="cls-2" d="M57.36,4.37h2.35v1.09c.25-.4.56-.7.92-.92.36-.21.79-.32,1.27-.32h.2c.07,0,.16,0,.25.03v2.25c-.31-.16-.65-.23-1.01-.23-.55,0-.96.16-1.23.49-.27.32-.41.8-.41,1.42v2.86h-2.35v-6.67Z"/>
    </g>
  </g>
</svg>