<?xml version="1.0" encoding="UTF-8"?>
<svg id="_レイヤー_2" data-name="レイヤー 2" xmlns="http://www.w3.org/2000/svg" viewBox="0 0 31.16 14.12">
  <defs>
    <style>
      .cls-1 {
        fill: none;
      }

      .cls-2 {
        fill: #ff4b00;
      }
    </style>
  </defs>
  <g id="layout">
    <rect class="cls-1" width="31.16" height="14.12"/>
    <g>
      <path class="cls-2" d="M5.58,3.39h-3.03v1.64h2.86v2.16h-2.86v1.69h3.03v2.16H0V1.24h5.58v2.16Z"/>
      <path class="cls-2" d="M8.45,1.24h3.77c.67,0,1.29.13,1.88.4.58.27,1.1.63,1.53,1.07.44.45.78.97,1.03,1.56.25.59.38,1.22.38,1.87s-.12,1.26-.37,1.85c-.25.59-.59,1.12-1.03,1.57-.44.45-.95.81-1.53,1.08-.58.27-1.22.4-1.89.4h-3.77V1.24ZM11,8.88h.58c.44,0,.84-.07,1.18-.21s.64-.33.88-.57c.24-.24.42-.53.55-.86.12-.33.19-.7.19-1.1s-.07-.75-.2-1.09-.31-.63-.55-.87c-.24-.24-.53-.43-.88-.57s-.74-.21-1.17-.21h-.58v5.49Z"/>
      <path class="cls-2" d="M22.26,1.24v9.8h-2.55V1.24h2.55Z"/>
      <path class="cls-2" d="M29.07,3.39v7.64h-2.55V3.39h-2.09V1.24h6.73v2.16h-2.09Z"/>
    </g>
  </g>
</svg>