<?xml version="1.0" encoding="UTF-8"?><svg id="_レイヤー_2" xmlns="http://www.w3.org/2000/svg" viewBox="0 0 31.51 32.62"><defs><style>.cls-1{fill:none;stroke:#fff;stroke-miterlimit:10;}</style></defs><g id="layout" fill="#fff"><path d="M6.9,32.41h-2.68l-2.06-3.19v3.19H0v-8.29h3.35c.46,0,.87.07,1.21.2s.63.32.85.56c.22.24.39.51.51.81.11.31.17.64.17.99,0,.63-.15,1.14-.46,1.54-.3.39-.75.66-1.35.8l2.61,3.4ZM2.16,27.82h.41c.43,0,.75-.09.98-.26.23-.18.34-.43.34-.76s-.11-.58-.34-.76-.55-.26-.98-.26h-.41v2.05Z"/><path d="M10.16,29.92c0,.86.4,1.29,1.21,1.29.43,0,.76-.18.98-.53h1.92c-.39,1.29-1.36,1.94-2.92,1.94-.48,0-.91-.07-1.31-.21-.4-.14-.74-.35-1.02-.61-.28-.26-.5-.58-.65-.95-.15-.37-.23-.78-.23-1.23s.07-.89.22-1.27.36-.7.63-.96c.27-.26.6-.47.99-.61.38-.14.82-.21,1.3-.21s.91.07,1.29.21c.38.14.7.35.97.62.26.27.47.6.61,1s.21.83.21,1.33v.21h-4.19ZM12.5,28.77c-.07-.28-.2-.5-.41-.67-.21-.17-.46-.25-.75-.25-.31,0-.56.08-.75.24-.19.16-.32.39-.37.68h2.28Z"/><path d="M20.72,23.28h2v9.13h-2v-.63c-.43.54-1,.8-1.73.8-.41,0-.79-.08-1.13-.23-.34-.15-.65-.37-.9-.64-.26-.27-.46-.59-.6-.96-.14-.37-.21-.76-.21-1.19s.07-.79.2-1.15.33-.68.58-.95c.25-.27.55-.49.9-.64.35-.16.73-.24,1.15-.24.7,0,1.29.25,1.75.74v-4.05ZM18.22,29.57c0,.18.03.35.1.51.07.16.16.29.27.41s.25.21.41.28c.16.07.33.1.51.1s.34-.03.5-.1c.16-.07.29-.16.41-.28.11-.12.21-.25.27-.41.07-.15.1-.32.1-.5s-.03-.34-.1-.5c-.07-.16-.16-.29-.27-.41-.11-.12-.25-.21-.41-.28-.16-.07-.32-.1-.5-.1s-.34.03-.5.1c-.16.07-.29.16-.41.28-.11.12-.21.25-.27.4-.07.15-.1.31-.1.49Z"/><path d="M24.74,29.54c0-.42.08-.81.25-1.17.17-.36.4-.68.7-.95s.66-.48,1.07-.63.87-.23,1.36-.23.93.08,1.35.22c.41.15.77.36,1.08.63.3.27.54.59.71.96.17.37.25.78.25,1.23s-.09.86-.26,1.23c-.17.37-.41.69-.71.96-.3.27-.66.48-1.08.62s-.88.22-1.37.22-.93-.07-1.34-.22c-.41-.15-.76-.36-1.06-.63-.3-.27-.53-.6-.7-.97s-.25-.8-.25-1.26ZM26.84,29.56c0,.19.03.36.1.52.07.16.16.29.27.41s.25.21.41.28c.16.07.32.1.5.1s.34-.03.5-.1c.16-.07.29-.16.41-.28.11-.12.21-.25.27-.41.07-.16.1-.33.1-.51s-.03-.34-.1-.5c-.07-.16-.16-.29-.27-.41-.11-.12-.25-.21-.41-.28-.16-.07-.32-.1-.5-.1s-.34.03-.5.1c-.16.07-.29.16-.41.28s-.21.25-.27.41c-.07.15-.1.32-.1.5Z"/><path class="cls-1" d="M15.08,4.99h-3.41c-2.84,0-5.14,2.3-5.14,5.14s2.3,5.14,5.14,5.14h7.7"/><polygon points="13.62 0 22.26 4.99 13.62 9.97 13.62 0"/></g></svg>