<?xml version="1.0" encoding="UTF-8"?><svg id="_レイヤー_2" xmlns="http://www.w3.org/2000/svg" viewBox="0 0 14 14"><defs><style>.cls-1{fill:#333;}</style></defs><g id="panel_layout"><path class="cls-1" d="M12.44,14h-1.17c0-1.1.51-1.67.93-2.14.37-.41.63-.71.63-1.36s-.26-.95-.63-1.36c-.41-.46-.93-1.04-.93-2.14s.51-1.67.93-2.14c.37-.41.63-.71.63-1.36s-.26-.95-.63-1.36c-.41-.46-.93-1.04-.93-2.14h1.17c0,.65.26.95.63,1.36.41.46.93,1.04.93,2.14s-.51,1.67-.93,2.14c-.37.41-.63.71-.63,1.36s.26.95.63,1.36c.41.46.93,1.04.93,2.14s-.51,1.67-.93,2.14c-.37.41-.63.71-.63,1.36Z"/><path class="cls-1" d="M8.69,14h-1.17c0-1.1.51-1.67.93-2.14.37-.41.63-.71.63-1.36s-.26-.95-.63-1.36c-.41-.46-.93-1.04-.93-2.14s.51-1.67.93-2.14c.37-.41.63-.71.63-1.36s-.26-.95-.63-1.36c-.41-.46-.93-1.04-.93-2.14h1.17c0,.65.26.95.63,1.36.41.46.93,1.04.93,2.14s-.51,1.67-.93,2.14c-.37.41-.63.71-.63,1.36s.26.95.63,1.36c.41.46.93,1.04.93,2.14s-.51,1.67-.93,2.14c-.37.41-.63.71-.63,1.36Z"/><path class="cls-1" d="M4.93,14h-1.17c0-1.1.51-1.67.93-2.14.37-.41.63-.71.63-1.36s-.26-.95-.63-1.36c-.41-.46-.93-1.04-.93-2.14s.51-1.67.93-2.14c.37-.41.63-.71.63-1.36s-.26-.95-.63-1.36c-.41-.46-.93-1.04-.93-2.14h1.17c0,.65.26.95.63,1.36.41.46.93,1.04.93,2.14s-.51,1.67-.93,2.14c-.37.41-.63.71-.63,1.36s.26.95.63,1.36c.41.46.93,1.04.93,2.14s-.51,1.67-.93,2.14c-.37.41-.63.71-.63,1.36Z"/><path class="cls-1" d="M1.17,14H0c0-1.1.51-1.67.93-2.14.37-.41.63-.71.63-1.36s-.26-.95-.63-1.36c-.41-.46-.93-1.04-.93-2.14s.51-1.67.93-2.14c.37-.41.63-.71.63-1.36s-.26-.95-.63-1.36c-.41-.46-.93-1.04-.93-2.14h1.17c0,.65.26.95.63,1.36.41.46.93,1.04.93,2.14s-.51,1.67-.93,2.14c-.37.41-.63.71-.63,1.36s.26.95.63,1.36c.41.46.93,1.04.93,2.14s-.51,1.67-.93,2.14c-.37.41-.63.71-.63,1.36Z"/></g></svg>