<?xml version="1.0" encoding="UTF-8"?><svg id="_レイヤー_2" xmlns="http://www.w3.org/2000/svg" viewBox="0 0 33.11 32.64"><defs><style>.cls-1{fill:none;stroke:#000;stroke-miterlimit:10;}</style></defs><g id="layout" fill="#000"><path d="M2.16,24.11v4.51c0,.24,0,.49.03.74.02.25.07.48.17.69.09.21.24.37.43.5.2.13.48.19.84.19s.64-.06.83-.19.34-.29.43-.5c.1-.21.15-.43.17-.69.02-.25.03-.5.03-.74v-4.51h2.14v4.81c0,1.29-.29,2.23-.88,2.83-.59.59-1.5.89-2.72.89s-2.13-.3-2.73-.89-.89-1.54-.89-2.83v-4.81h2.16Z"/><path d="M9.78,26.77h1.99v.71c.27-.33.55-.55.83-.67.28-.11.6-.17.98-.17.4,0,.74.06,1.02.19.28.13.52.31.72.54.16.19.27.4.33.64.06.23.09.5.09.8v3.59h-1.99v-2.85c0-.28-.02-.5-.06-.68-.04-.17-.11-.31-.21-.41-.09-.09-.19-.15-.3-.19-.11-.04-.23-.05-.35-.05-.34,0-.6.1-.78.3-.18.2-.27.49-.27.86v3.01h-1.99v-5.64Z"/><path d="M22.32,23.28h2v9.13h-2v-.63c-.43.54-1,.8-1.73.8-.41,0-.79-.08-1.13-.23-.34-.15-.65-.37-.9-.64-.26-.27-.46-.59-.6-.96-.14-.37-.21-.76-.21-1.19s.07-.79.2-1.15.33-.68.58-.95c.25-.27.55-.49.9-.64.35-.16.73-.24,1.15-.24.7,0,1.29.25,1.75.74v-4.05ZM19.81,29.57c0,.18.03.35.1.51.07.16.16.29.27.41s.25.21.41.28c.16.07.33.1.51.1s.34-.03.5-.1c.16-.07.29-.16.41-.28.11-.12.21-.25.27-.41.07-.15.1-.32.1-.5s-.03-.34-.1-.5c-.07-.16-.16-.29-.27-.41-.11-.12-.25-.21-.41-.28-.16-.07-.32-.1-.5-.1s-.34.03-.5.1c-.16.07-.29.16-.41.28-.11.12-.21.25-.27.4-.07.15-.1.31-.1.49Z"/><path d="M26.33,29.54c0-.42.08-.81.25-1.17.17-.36.4-.68.7-.95s.66-.48,1.07-.63.87-.23,1.36-.23.93.08,1.35.22c.41.15.77.36,1.08.63.3.27.54.59.71.96.17.37.25.78.25,1.23s-.09.86-.26,1.23c-.17.37-.41.69-.71.96-.3.27-.66.48-1.08.62s-.88.22-1.37.22-.93-.07-1.34-.22c-.41-.15-.76-.36-1.06-.63-.3-.27-.53-.6-.7-.97s-.25-.8-.25-1.26ZM28.43,29.56c0,.19.03.36.1.52.07.16.16.29.27.41s.25.21.41.28c.16.07.32.1.5.1s.34-.03.5-.1c.16-.07.29-.16.41-.28.11-.12.21-.25.27-.41.07-.16.1-.33.1-.51s-.03-.34-.1-.5c-.07-.16-.16-.29-.27-.41-.11-.12-.25-.21-.41-.28-.16-.07-.32-.1-.5-.1s-.34.03-.5.1c-.16.07-.29.16-.41.28s-.21.25-.27.41c-.07.15-.1.32-.1.5Z"/><path class="cls-1" d="M13.75,4.99h3.41c2.84,0,5.14,2.3,5.14,5.14s-2.3,5.14-5.14,5.14h-7.7"/><polygon points="15.21 9.97 6.58 4.99 15.21 0 15.21 9.97"/></g></svg>